<?xml version="1.0" encoding="UTF-8"?>
<svg id="Layer_1" data-name="Layer 1" xmlns="http://www.w3.org/2000/svg" xmlns:xlink="http://www.w3.org/1999/xlink" viewBox="0 0 1920 1080">
  <defs>
    <clipPath id="clippath">
      <path d="m1920,1080H0V0h1920v1080Z" fill="none" stroke-width="0"/>
    </clipPath>
  </defs>
  <g clip-path="url(#clippath)">
    <g>
      <path d="m1920,1080H0V0h1920v1080Z" fill="#1e3e1d" stroke-width="0"/>
      <path d="m1807.81-306.93s136.36,564.34-104.86,631.87c-241.23,67.51-325.69,18.41-361.03-124.69-35.34-143.08-216.86-223.14-19.54-344.59,197.31-121.45,485.44-162.59,485.44-162.59h-.01Z" fill="#2c8943" stroke-width="0"/>
      <path d="m861.19-124.42s-39.21,502.93-281.96,535.23c-242.74,32.28-488.22,180.42-601.45,24.73C-135.46,279.82-392-1.07-155.9-145.91c236.09-144.84,1017.09,21.49,1017.09,21.49Z" fill="#fff" stroke-width="0"/>
      <path d="m-677.09,782.29S207.2,35.45,340.86,507.78c133.65,472.34,250.18,7.49,421.1,364.91,170.92,357.44,187.19,319.49,59.74,427.48-127.47,107.99-473.85,161.02-747.67,92.83-273.81-68.19-520.04,90.97-516.25-111.72,3.79-202.69-257.6-499-257.6-499" fill="#1e6431" stroke-width="0"/>
      <path d="m1919.84,122.83c-.12,7.63,2.26,14.81,7.21,20,4.72,4.94,13.63,10.35,20.6,4.21,5.74-5.07,4.24-13,2.04-18.6-3.52-8.95-11.87-19.96-23.29-15.39-3,1.2-5.11,3.5-5.41,6.57-.67.98-1.12,2.09-1.14,3.21h0Zm18.92,16.23c-.08.21-.18.33,0,0Zm-.37-2.45c.11.51.12.92,0,0Zm-4.06-7.09c-.08-.15-.59-1.27-.91-2.04.48.52.94,1.05,1.35,1.61.08.11.34.5.48.7.07.11.12.19.15.25.62,1.05,1.16,2.15,1.67,3.28-.59-.63-1.18-1.28-1.71-1.97-.06-.07-.18-.25-.29-.41-.25-.47-.52-.94-.76-1.43h.01Zm3.44,4.52c.44.23.54.34.45.33-.12-.1-.26-.18-.39-.28-.03-.03-.04-.04-.07-.07h0Zm-5.12-11.56c.22,1.12,0,.78,0,.28v-.28Zm8.74,13.81c-.1-.08-.21-.18-.33-.25.08.04.19.12.33.25Zm-8.98-9.79c.32.3.47.52,0,0Z" fill="#fff" stroke-width="0"/>
      <path d="m1879.43,53.89c-.4.62-.73,1.67-.54,2.35.67,2.55,1.84,4.86,3.66,6.64,1.6,1.57,3.5,2.74,5.67,3.4,1.18.36,2.57.5,3.84.03,2.09-.78,3.68-2.84,3.33-5.12-.23-1.47-1.17-2.55-2.05-3.59-.7-.81-1.45-1.58-2.22-2.34-1.73-1.64-3.63-3.15-5.66-4.41-1.39-.87-3.26-.22-4.27,1.23-.11.15-.19.33-.28.48-.59.29-1.16.78-1.5,1.32h0Zm11.55,6.4s-.06,0-.08.03h-.03s.07-.03.11-.03h0Z" fill="#fff" stroke-width="0"/>
      <path d="m1925.69,300.65c-2.11.03-4.3-.4-6.28-.94-2.05-.54-4.02-1.38-5.88-2.3-3.68-1.84-7.01-4.67-9.43-8.01-.76-1.03-1.29-2.15-1.43-3.46-.78-1.56-.96-3.5-.28-5.22,1.45-3.59,4.9-5.52,8.33-4.78,3.83.83,7.57,1.86,11.22,3.14,1.86.65,3.68,1.35,5.48,2.11,2.34.98,4.39,1.84,6.17,3.7,2.2,2.33,2.97,5.75,1.84,9.13-1.43,4.25-5.8,6.57-9.75,6.62h0Z" fill="#fff" stroke-width="0"/>
      <path d="m1917.65,256.73c-2.29.7-4.72.44-6.83-.25-3.68-1.2-7.28-2.52-10.93-3.79-1.56-.54-2.86-1.49-3.58-3.04-.65-1.4-.78-3.46-.14-5.02.59-1.47,1.58-2.88,2.93-3.76.07-.3.12-.62.23-.91,1.03-2.67,2.95-5.01,5.47-6.39,1.95-1.07,4.31-1.73,6.42-1.6,2.22.14,4.35.74,6.1,2.04,1.53,1.13,2.82,2.41,3.94,3.95.96,1.35,2,2.7,2.67,4.25.92,2.15,1.29,4.47.73,6.94-.84,3.59-3.52,6.48-7.01,7.57h0Z" fill="#fff" stroke-width="0"/>
      <path d="m1929.5,183.77c-9.33-9.06-24.19-12.24-37.46-6.72-1.76.73-3.13,1.54-4.27,3.18-1.05,1.49-1.31,3.32-1.14,4.97.18,1.64,1.32,3.26,2.62,4.06.88.54,2.31.95,3.59.85,4.54,3.48,9.4,6.92,15.19,8.16,7.01,1.5,14.54.1,20.6-5.12,2.68-2.3,3.17-7.17.88-9.39h0Zm-11.15,8.54c.15.12.32.23.48.33.03,0,.03.03.06.04-.78-.4-.77-.48-.54-.37Zm-4.93-2.95h.04c.47.18,1.17.77-.04,0Zm-3.73-4.83s-.08-.03-.12-.06c-.08-.03-.17-.07-.23-.11-.1-.07.08,0,.37.17h-.01Z" fill="#fff" stroke-width="0"/>
      <path d="m1893.9,517.73c-1.09-.36-2.02-.99-2.77-1.9-1.45-1.62-2.38-4.36-2.04-6.73.03-.22.1-.44.14-.66-.03-.12-.08-.25-.1-.37-.25-2.34.12-4.96,1.61-7.05,1.46-2.09,3.62-4.01,6.07-4.52,5.09-1.06,10.23-1.06,14.99.4,4.72,1.45,8.96,4.05,12.24,7.68.43.66.85,1.32,1.29,2,.23.78.47,1.54.69,2.33.3,2-.12,4.05-1.05,5.92-.29.8-.74,1.5-1.36,2.09-.48.73-1.1,1.34-1.86,1.76-1.57,1.18-3.88,2.33-5.77,2.09-6.26-.77-12.53-1.54-18.79-2.31-1.21.04-2.31-.21-3.3-.74h0Z" fill="#fff" stroke-width="0"/>
      <path d="m1846.33,324.63c-.56-.22-1.14-.43-1.62-.8-1.2-.91-2.11-2.04-2.77-3.44-.54-1.16-.85-2.44-1.18-3.69-.23-.88.18-2.23.69-3.03.56-.88,1.61-1.71,2.6-1.94.58-.12,1.17-.15,1.73-.06,1.86-.37,3.77-.58,5.51-.03,1.18.37,2.26,1.03,3.07,1.98.77.94,1.43,2.18,1.51,3.47.11,1.54-.18,3.19-1.14,4.56-.37.52-.78,1.05-1.29,1.43-.96.74-1.46,1.03-2.57,1.46-.88.33-1.87.44-2.77.36-.58-.04-1.23-.1-1.76-.3v.03Z" fill="#fff" stroke-width="0"/>
      <path d="m1819.39,407.11c1.1-.58,2.26-.83,3.37-.83,1.05-.67,2.24-1.07,3.51-1.07,1.67,0,3.33,0,4.96.21,2.62.32,4.82.83,7.16,1.95,1.69.83,3.28,2.15,4.38,3.68.67.94,1.36,1.94,1.76,3.07.63,1.82.87,3.25.84,5.25-.03,2.19-.95,4.64-2.17,6.55-1.25,1.94-3.18,3.85-5.23,4.82-2.67,1.25-5.58,1.76-8.15.73-2.38-.96-4.23-2.52-6.04-4.3-3.17-3.08-5.74-6.88-7.64-10.97-1.39-2.97.03-7.41,3.26-9.09h0Z" fill="#fff" stroke-width="0"/>
      <path d="m1888.12,424.07c1.32-1.24,3.11-2.02,4.8-2.02,1.2,0,2.52.43,3.51,1.16.88.29,1.69.77,2.38,1.49,2.22,2.33,3.72,5.62,4.13,8.98.41,3.3.03,7.06-1.5,10.27-.26.52-.52,1.05-.78,1.58-.48.8-1.1,1.45-1.87,1.94-1.13.84-2.71,1.61-4.06,1.47-1.97-.21-3.22-.52-4.97-1.38-1.05-.51-1.97-1.34-2.78-2.15-1.79-1.79-2.78-4.21-3.39-6.73-1.2-4.87.58-10.9,4.54-14.61h-.01Z" fill="#fff" stroke-width="0"/>
      <path d="m1780.93,487.93c.43-.4.94-.76,1.5-1.07.34-.63.8-1.21,1.38-1.75.04-.04.08-.11.12-.15,0,0,.03-.03.04-.03.06-.04.12-.08.18-.12,1.32-1.12,2.96-1.94,4.6-1.86,1.73.07,3.06.72,4.28,1.86,1.93,1.82,3.85,3.63,5.78,5.45.39.36.74.7,1.09,1.1.62.76,1.23,1.6,1.58,2.55.54,1.43.83,2.74.62,4.38-.26,2.16-1.25,3.95-2.73,5.58-1.35,1.51-3.52,2.63-5.4,2.99-2.01.37-3.8.37-5.73-.07-1.28-.3-2.53-.85-3.62-1.56-1.1-.72-2.19-1.61-3.02-2.67-2.16-2.75-3.32-6.17-2.97-9.97.14-1.64,1.06-3.46,2.3-4.63v-.03Z" fill="#fff" stroke-width="0"/>
      <path d="m1898.7,357.58c-1.49-.52-2.53-1.2-3.7-2.2-.84-.73-1.42-1.6-2.01-2.56-1.24-2.01-1.75-4.8-1.32-7.32.18-1.07.54-2,1.25-2.86.69-.83,1.65-1.58,2.67-1.79.56-.12,1.14-.19,1.69-.22.28-.25.56-.47.9-.63,1.09-.58,2.46-.94,3.58-.52,1.46.54,2.53,1.2,3.66,2.26.78.73,1.39,1.69,1.86,2.67.23.5.39,1.03.55,1.58.18.58.34,1.16.4,1.78.15,1.58,0,2.93-.39,4.5-.5,2-1.8,3.91-3.62,4.93-1.75,1.03-3.81,1.02-5.52.41h0Z" fill="#fff" stroke-width="0"/>
      <path d="m1775.65,237.05c-1.9,1.49-3.91,2.74-6.22,3.21-2.26.48-4.52.48-6.62-.18-4.34-1.38-7.65-4.75-9.46-8.95-.65-1.51-.73-3.35-.14-5.03.08-.21.19-.41.29-.62,0-.07-.04-.14-.06-.21-.18-1.64.1-3.5,1.14-4.97,1.12-1.58,2.51-2.56,4.27-3.18,1.6-.55,3.22-1.12,4.86-1.45,2.64-.54,5.08-.67,7.63-.22,4.64.84,8.49,4.56,9.32,9.35.76,4.31-1.36,9.38-5.03,12.23h.01Z" fill="#fff" stroke-width="0"/>
      <path d="m1832.2,545.84c3.55-3.15,8.33-4.02,12.06-1.82.87.51,1.73,1.03,2.6,1.54,1.39-.28,2.81-.3,4.12.12,2.55.83,4.12,2.4,5.49,4.68,2.97,4.91,5.95,9.86,8.92,14.77.25.84.5,1.68.74,2.52.03.88.03,1.73.06,2.62-.23,2.22-1.21,4.31-2.67,6.07-1.24,1.51-2.66,2.55-4.41,3.29-1.94.81-4.41,1.28-6.29.56-5.6-2.15-10.35-5.07-14.65-9.2-3.68-3.55-6.68-8.05-8.71-12.87-1.6-3.8-.78-9.16,2.74-12.27v-.03Z" fill="#fff" stroke-width="0"/>
      <path d="m1829.26,500.22c.63-1.58,1.8-3.33,3.39-4.06,1.69-.77,3.4-1.49,5.18-1.8,1.75-.32,3.52-.54,5.26-.41,3.43.28,6.79,1.2,9.47,3.21,1.29.96,2.44,2.3,2.62,4.06,0,.58.03,1.13.03,1.71-.12,1.16-.52,2.24-1.17,3.26-.58.72-1.14,1.47-1.8,2.11-.45.44-.96.8-1.47,1.18-.83.62-1.6,1.17-2.52,1.57-1.13.5-2.26,1-3.46,1.24-1.16.22-2.35.41-3.51.37-2.37-.07-4.47-.63-6.48-1.71-1.65-.88-2.96-2.24-3.99-3.83-.62-.52-1.13-1.17-1.42-1.89-.61-1.5-.81-3.33-.12-5.01h.01Z" fill="#fff" stroke-width="0"/>
      <path d="m1761.34,387.37c-1.56-1.9-2.81-4.42-2.88-7.08-.17-.84-.11-1.69.17-2.55.12-.87.45-1.67.98-2.42.4-.63.96-1.21,1.6-1.73.39-1.02.95-1.97,1.78-2.7.48-.37.99-.73,1.47-1.1,1.06-.61,2.18-.92,3.33-.92,1.82-.25,3.7-.03,5.41.39,1.13.28,2.19.76,3.22,1.24.59.28,1.16.59,1.68.96,1.43,1.02,2.81,2.19,3.8,3.66.63.94,1.29,1.9,1.75,2.97.47,1.09.8,2.29,1.06,3.47.45,2.15-.61,4.78-2.27,6.35-4.12,3.9-10.08,5.22-14.88,3.51-2.37-.81-4.6-2.09-6.2-4.05h-.01Z" fill="#fff" stroke-width="0"/>
      <path d="m1769.53,187.77c-1.75,2.33-4.14,4.01-6.88,4.61-3.8.84-7.37.17-10.71-1.21-2-.81-3.94-1.69-5.75-2.84-1.8-1.13-3.47-2.51-5.05-3.94-1.12-1-1.6-3.19-1.43-4.75.18-1.6,1.05-3.52,2.31-4.65.77-.67,1.67-1.24,2.62-1.6.23-.29.45-.58.73-.81,1.29-1.14,3.15-2.22,4.8-2.02,3.88.45,7.81.78,11.65,1.39,4.42.67,8.63,3.39,9.55,8.08.48,2.45-.21,5.56-1.83,7.74h0Z" fill="#fff" stroke-width="0"/>
      <path d="m1782.33,581.8c-.23-2.97.33-5.99,2.05-8.69.48-.77,1.12-1.53,1.75-2.16.14-.14.28-.25.43-.37.56-.45,1.16-.95,1.78-1.29.63-.36,1.38-.65,2.05-.88.18-.07.34-.11.54-.14,1.67-.33,2.53-.26,4.16,0,.58.08,1.14.4,1.65.78.7-.07,1.39-.06,2.05.17,1.56.51,2.89,1.5,3.58,3.04,1.2,2.7,2.4,5.41,3.59,8.12.81,1.84.7,3.88-.25,5.82-.91,1.83-2.66,3.59-4.65,3.96-4.85.92-10.08,1.54-14.18-1.1-1.54-.98-2.6-2.16-3.5-3.76-.29-.52-.43-1.09-.61-1.67-.21-.61-.4-1.18-.45-1.83h.01Z" fill="#fff" stroke-width="0"/>
      <path d="m1686.55,350.85c-2.05-.62-4.06-1.47-5.92-2.48-1.9-1.03-3.54-2.34-5.19-3.74-1.13-.96-1.6-3.22-1.43-4.75.18-1.6,1.05-3.52,2.31-4.65,1.35-1.2,3.07-2.09,4.8-2.02.1,0,.19.03.28.03.89-1,2.05-1.78,3.41-2.09,3.95-.92,7.9-.95,11.66-.06,4.52,1.09,9.6,3.65,10.57,8.69,1.09,5.62-3.79,10.93-9.13,11.92-3.84.72-7.79.21-11.36-.85h-.01Z" fill="#fff" stroke-width="0"/>
      <path d="m1772.36,278.24c-.29-.04-.58-.08-.87-.1-1.72-.07-3.44.83-4.8,2.02-1.25,1.12-2.15,3.04-2.31,4.65-.21,1.93.47,3.3,1.43,4.75,5.07,7.5,12.95,12.87,21.71,15.24,3.9,1.06,8.25-2.19,8.71-6.47,1.31-11.81-8.05-22.55-19.67-21.74-1.6.12-3.04.72-4.23,1.64h.03Zm8.49,13.55c-.08-.07-.21-.18-.36-.33h.03s.07.06.1.08c.03.03.08.07.11.1.04.06.08.11.12.15h0Z" fill="#fff" stroke-width="0"/>
      <path d="m1815.19,129.94c-.29,1.07-.84,2.13-1.38,3.1-.4.73-.89,1.34-1.43,1.97-.58.7-1.13,1.36-1.82,1.94-1.78,1.46-3.81,2.75-6,3.17-2.33.43-4.56.4-6.75-.19-3.84-1.03-6.77-3.5-9.71-5.97-1.13-.95-1.6-3.24-1.43-4.75.18-1.6,1.05-3.52,2.31-4.65,1.35-1.2,3.07-2.09,4.8-2.02.14.03.28.03.41.06.61-.87,1.39-1.64,2.37-2.23,1.6-.94,3.28-1.69,4.98-2.34,1.57-.59,3.35-.94,4.94-.88,2.66.08,4.85,1.03,6.7,2.77,1.39,1.29,2.4,3.47,2.49,5.49.08,1.73-.03,2.82-.5,4.56h-.01Z" fill="#fff" stroke-width="0"/>
      <path d="m1828.79,206.86c-3.07.95-6.59.88-9.43-.11-2.95-1.02-5.75-2.74-7.64-5.26-2.52-3.36-3.87-7.75-2.22-12.28,1.34-3.69,4.3-6.72,7.81-8.19,2.34-.98,4.71-1.17,6.87-.66,0,0,0,0,.03-.03,1.46-1.29,2.97-1.84,4.8-2.02,3.44-.36,6.58,1.25,8.88,3.47,2.26,2.16,3.43,5.44,3.48,8.73.17,7.38-5.66,14.18-12.57,16.34h-.01Z" fill="#fff" stroke-width="0"/>
      <path d="m1784.77,653.67c3.99-2.38,8.15-.56,11.25,1.58,3.24,2.24,6.26,4.86,8.93,7.78,1.64,1.79,1.42,5.23-.66,7.08-1.24,1.09-2.74,1.58-4.13,1.45-1.1.98-2.35,1.73-3.77,2.3-1.9.74-3.84.72-5.71.44-3.8-.56-6.66-3.61-8.14-7.03-.73-1.69-1.29-3.58-1.54-5.47-.43-3.1.85-6.42,3.76-8.14h.01Z" fill="#fff" stroke-width="0"/>
      <path d="m1834.22,246.59c-.28-.85-.39-1.78-.28-2.63.25-1.69.96-3.46,2.31-4.65,1.35-1.18,3.08-2.11,4.8-2.02,3.57.17,6.84,1.06,9.87,2.73,2.55,1.4,4.89,3.46,6.53,5.88,1.21,1.79,2.56,3.76,2.77,6.11.39,4.38-2.31,8.41-6.54,9.83-4.06,1.36-8.07-.48-11.1-2.67-3.32-2.41-5.92-5.4-7.89-9.06-.5-.96-.62-2.27-.47-3.51h-.01Z" fill="#fff" stroke-width="0"/>
      <path d="m1636.73,332.33c-.99-1.4-1.64-2.85-1.43-4.75.18-1.6,1.05-3.52,2.31-4.65.37-.33.78-.63,1.2-.89,1.07-2.84,3.62-4.83,6.65-4.97,7.48-.36,14.87,3.35,18.46,9.71,1.27,2.24,1.57,5.31.63,7.98-1.18,3.39-3.99,5.84-7.28,6.83-4.3,1.28-8.6-.29-12.18-2.07-3.28-1.64-6.24-4.17-8.36-7.19Z" fill="#fff" stroke-width="0"/>
      <path d="m1674.3,239.36c-.54.88-1.4,1.68-2.31,2.09-1.1.5-2.18.69-3.32.54-.87-.12-1.73-.37-2.42-.89-.96-.73-1.71-1.65-2.22-2.79-.44-.98-.72-2.04-.99-3.08-.18-.63.12-1.58.48-2.16.32-.48.83-.94,1.36-1.2.14-.25.32-.48.54-.67.58-.51,1.35-.94,2.09-.88,1.75.15,3.54.33,5.03,1.24,1.43.88,2.55,2.51,2.62,4.32.06,1.23-.18,2.35-.84,3.48h-.01Z" fill="#fff" stroke-width="0"/>
      <path d="m370.21,973.82c-7.35,3.83-12.98,9.84-15.36,17.26-2.27,7.06-2.82,18.37,6.68,21.79,7.82,2.84,14.62-2.71,18.83-7.72,6.73-8,12.9-21.68,2.62-30.19-2.7-2.24-6.02-3.04-9.09-1.73-1.29-.12-2.57.03-3.66.59h-.01Zm-5.67,26.45c-.23.03-.4,0,0,0Zm2.15-1.62c-.43.37-.83.61,0,0Zm4.65-7.54c.11-.15.89-1.23,1.47-1.91-.25.73-.51,1.43-.84,2.13-.07.14-.3.59-.43.83-.07.12-.12.22-.17.28-.69,1.13-1.45,2.22-2.26,3.29.28-.89.61-1.79,1.01-2.64.04-.08.15-.3.25-.48.3-.5.62-.99.95-1.49h.01Zm-2.52,5.62c0,.55-.06.69-.08.61.03-.18.04-.34.06-.51,0-.03.03-.07.03-.1Zm8.38-10.88c-.95.78-.74.41-.26.17.08-.06.17-.11.26-.17Zm-8.66,15.5c.03-.14.06-.28.07-.44,0,.11,0,.26-.07.45h0Zm4.69-13.63c-.12.45-.28.73,0,0Z" fill="#fff" stroke-width="0"/>
      <path d="m415.1,899.55c-.8-.07-1.97.18-2.53.72-2.08,1.97-3.68,4.27-4.45,6.92-.67,2.34-.81,4.76-.32,7.17.28,1.31.87,2.71,1.97,3.68,1.84,1.58,4.63,2.04,6.62.52,1.28-.98,1.83-2.44,2.37-3.83.41-1.09.78-2.2,1.07-3.32.67-2.51,1.12-5.08,1.29-7.68.11-1.76-1.47-3.22-3.37-3.44-.21-.03-.41-.03-.61,0-.59-.41-1.36-.69-2.04-.73h-.01Zm-.12,14.33s-.04-.04-.07-.07v-.03s.06.06.07.1Z" fill="#fff" stroke-width="0"/>
      <path d="m203.35,1071.78c-1.13-2-1.84-4.3-2.37-6.46-.54-2.23-.78-4.53-.85-6.8-.15-4.46.81-9.1,2.75-13.15.61-1.27,1.39-2.35,2.56-3.15,1.09-1.56,2.84-2.74,4.85-2.96,4.19-.48,7.81,1.79,8.89,5.45,1.2,4.06,2.16,8.18,2.84,12.32.34,2.09.62,4.21.84,6.32.28,2.74.54,5.15-.33,7.79-1.07,3.3-3.95,5.82-7.76,6.5-4.82.83-9.29-2.13-11.4-5.86h-.01Z" fill="#fff" stroke-width="0"/>
      <path d="m241.13,1041.31c-1.86-1.8-2.86-4.27-3.3-6.62-.76-4.12-1.38-8.25-2.07-12.38-.29-1.78-.07-3.51,1.05-5,1-1.34,2.89-2.53,4.74-2.74,1.71-.19,3.57.03,5.11.84.33-.1.65-.19.99-.23,3.08-.41,6.32.21,8.95,1.89,2.04,1.31,3.9,3.19,4.86,5.27,1.02,2.19,1.54,4.53,1.23,6.87-.28,2.04-.84,3.94-1.75,5.8-.78,1.62-1.54,3.3-2.68,4.75-1.58,2-3.59,3.57-6.25,4.31-3.85,1.07-8.03,0-10.86-2.74h0Z" fill="#fff" stroke-width="0"/>
      <path d="m317.01,1014.72c3.8-13.6-.87-29.41-13.04-39.18-1.61-1.29-3.1-2.18-5.26-2.42-1.95-.22-3.85.48-5.34,1.5-1.47,1.02-2.44,2.95-2.52,4.61-.07,1.12.3,2.7,1.05,3.87-.96,6.14-1.73,12.54.08,18.71,2.2,7.46,7.45,13.89,15.58,16.96,3.59,1.35,8.49-.72,9.43-4.05h.01Zm-13.96-6.2c-.03.21-.07.43-.07.62,0,.03,0,.04-.03.07,0-.95.07-.98.08-.69h.01Zm.26-6.22v.04c.07.52-.12,1.5,0-.04Zm2.67-6.09v-.15c0-.1,0-.19-.03-.29,0-.11.04.11.03.44Z" fill="#fff" stroke-width="0"/>
      <path d="m139.2,1008.67c-.08-.65-.18-1.32-.08-1.97.25-1.61.84-3.07,1.86-4.41.83-1.1,1.89-2.08,2.9-3.04.73-.67,2.22-.99,3.25-.91,1.14.08,2.46.65,3.19,1.47.43.48.76,1.03.95,1.62,1.31,1.58,2.52,3.29,2.88,5.23.25,1.32.19,2.7-.3,3.95-.48,1.23-1.34,2.49-2.53,3.25-1.42.89-3.14,1.49-4.96,1.28-.69-.08-1.4-.21-2.05-.48-1.21-.52-1.75-.85-2.73-1.69-.78-.67-1.39-1.54-1.78-2.45-.25-.58-.54-1.21-.61-1.84h0Z" fill="#fff" stroke-width="0"/>
      <path d="m46.39,1025.83c1.13.76,1.97,1.72,2.55,2.78,1.18.65,2.19,1.58,2.85,2.79.87,1.58,1.72,3.18,2.38,4.83,1.06,2.66,1.72,5.01,1.86,7.83.1,2.04-.34,4.24-1.24,6.07-.55,1.13-1.14,2.3-2.02,3.28-1.39,1.56-2.66,2.51-4.57,3.54-2.11,1.13-4.93,1.51-7.39,1.34-2.52-.18-5.33-1.02-7.34-2.48-2.59-1.89-4.58-4.39-4.93-7.39-.32-2.77.22-5.33.96-7.98,1.31-4.61,3.61-9.04,6.53-12.97,2.12-2.85,7.09-3.81,10.38-1.61v-.03Z" fill="#fff" stroke-width="0"/>
      <path d="m134.91,1075.64c-.28-1.69-.18-3.04.18-4.67.25-1.17.78-2.19,1.39-3.25,1.28-2.22,3.68-4.16,6.31-5.07,1.12-.37,2.18-.52,3.39-.29,1.14.22,2.37.76,3.11,1.61.41.48.77.98,1.09,1.5.39.12.73.29,1.07.52,1.12.74,2.16,1.86,2.35,3.14.23,1.68.18,3.04-.26,4.67-.3,1.13-.89,2.2-1.6,3.15-.36.48-.78.91-1.23,1.35-.47.48-.92.94-1.5,1.31-1.43.96-2.79,1.51-4.5,1.97-2.16.56-4.67.32-6.59-.88-1.84-1.16-2.9-3.11-3.22-5.07h.01Z" fill="#fff" stroke-width="0"/>
      <path d="m186.18,895.86c-2.41-1.05-4.64-2.3-6.31-4.25-1.62-1.9-2.82-4.05-3.28-6.4-.94-4.83.56-9.76,3.63-13.66,1.1-1.39,2.81-2.45,4.74-2.74.23-.03.48-.03.73-.04.07-.04.11-.11.18-.15,1.49-1.03,3.37-1.72,5.34-1.5,2.09.23,3.76,1.05,5.26,2.42,1.36,1.24,2.73,2.49,3.91,3.88,1.9,2.24,3.28,4.49,4.17,7.15,1.6,4.86.06,10.46-4.09,13.74-3.73,2.95-9.68,3.57-14.29,1.56h0Z" fill="#fff" stroke-width="0"/>
      <path d="m35.09,960.3c1.01-2.48,2.77-4.97,5.26-6.43.73-.59,1.57-.98,2.52-1.17.89-.33,1.83-.43,2.82-.33.8.07,1.67.29,2.49.62,1.17-.15,2.37-.12,3.5.29.61.28,1.21.55,1.82.83,1.14.7,2.01,1.6,2.62,2.7,1.2,1.61,1.95,3.51,2.44,5.36.33,1.21.4,2.48.48,3.7.04.7.03,1.4-.04,2.11-.23,1.89-.63,3.8-1.54,5.52-.58,1.1-1.14,2.23-1.93,3.22-.8,1.02-1.76,1.94-2.77,2.81-1.8,1.54-4.89,1.9-7.24,1.13-5.86-1.9-10.22-6.9-11.1-12.35-.43-2.7-.37-5.49.67-8.04v.04Z" fill="#fff" stroke-width="0"/>
      <path d="m230.07,864.41c-3.13-.47-5.96-1.87-7.97-4.16-2.78-3.18-3.98-6.92-4.41-10.82-.25-2.31-.43-4.63-.28-6.94s.59-4.61,1.14-6.86c.39-1.58,2.22-3.18,3.79-3.83,1.61-.67,3.92-.83,5.64-.22,1.05.37,2.05.94,2.89,1.65.39.07.78.14,1.16.28,1.76.63,3.76,1.84,4.43,3.52,1.58,3.94,3.29,7.85,4.72,11.81,1.64,4.56,1.24,9.98-2.77,13.29-2.12,1.73-5.45,2.68-8.36,2.24v.03Z" fill="#fff" stroke-width="0"/>
      <path d="m31.15,870.1c-.48-2.29-.7-4.63-.72-6.92,0-2.34.4-4.6.88-6.88.33-1.57,2.26-3.19,3.79-3.83,1.61-.67,3.92-.83,5.64-.22,1.86.67,3.61,1.84,4.43,3.52.03.1.08.19.11.29,1.43.33,2.77,1.03,3.77,2.16,2.93,3.29,5.01,7.04,6.11,11.08,1.31,4.86,1.5,11.03-2.81,14.58-4.8,3.96-12.42,2.07-16.12-2.51-2.67-3.3-4.24-7.32-5.08-11.28h-.01Z" fill="#fff" stroke-width="0"/>
      <path d="m145.12,914.11c-.11-.3-.23-.61-.36-.88-.83-1.68-2.57-2.85-4.43-3.52-1.72-.62-4.03-.45-5.64.22-1.95.81-2.92,2.16-3.79,3.83-4.54,8.73-5.56,19.03-3.29,28.61,1.02,4.25,6.37,6.72,10.7,4.94,11.96-4.89,17.37-19.38,10.56-30.03-.94-1.46-2.26-2.52-3.74-3.17h0Zm-8.55,15.13c.03-.11.08-.29.12-.52v.03s0,.08-.03.12c0,.05-.03.11-.04.17,0,.07-.04.14-.07.21h.01Z" fill="#fff" stroke-width="0"/>
      <path d="m309.07,877.87c-1.18.28-2.46.3-3.68.3-.89,0-1.73-.17-2.62-.33-.96-.18-1.89-.36-2.79-.73-2.31-.94-4.61-2.19-6.14-4.08-1.62-2-2.75-4.13-3.33-6.53-.99-4.2-.18-8.27.67-12.35.33-1.57,2.26-3.19,3.79-3.83,1.61-.67,3.92-.83,5.64-.22,1.86.67,3.61,1.84,4.43,3.52.06.14.11.28.17.41,1.14.12,2.3.47,3.36,1.1,1.73,1.03,3.32,2.24,4.82,3.52,1.39,1.18,2.64,2.7,3.43,4.24,1.29,2.59,1.54,5.15.84,7.83-.52,2-2.08,4.08-3.95,5.22-1.62.99-2.71,1.45-4.63,1.9h-.01Z" fill="#fff" stroke-width="0"/>
      <path d="m242.64,930.77c-2.52-2.44-4.25-5.82-4.79-9.05-.55-3.33-.37-6.9,1.05-9.99,1.9-4.14,5.4-7.71,10.59-8.49,4.21-.63,8.65.59,11.87,3.18,2.16,1.72,3.55,3.88,4.19,6.2h.03c2,.73,3.3,1.89,4.43,3.52,2.12,3.1,2.22,6.92,1.29,10.26-.89,3.28-3.41,6.08-6.53,7.86-6.98,3.96-16.52,1.95-22.15-3.5h.03Z" fill="#fff" stroke-width="0"/>
      <path d="m207.47,956.59c.67-.7,1.49-1.29,2.37-1.62,1.75-.63,3.8-.88,5.64-.22,1.84.66,3.62,1.84,4.43,3.52,1.69,3.48,2.53,7.08,2.52,10.81,0,3.15-.76,6.44-2.23,9.28-1.09,2.09-2.26,4.41-4.39,5.81-3.99,2.64-9.22,2.18-12.79-1.13-3.41-3.15-3.73-7.93-3.22-11.96.58-4.41,2.08-8.43,4.57-12.23.63-.99,1.83-1.79,3.1-2.29v.03Z" fill="#fff" stroke-width="0"/>
      <path d="m22.96,813.02c.84-1.67,1.87-3.04,3.79-3.83,1.61-.67,3.92-.83,5.64-.22.51.18,1.01.41,1.49.67,3.26-.45,6.5.94,8.21,3.76,4.23,6.92,4.53,15.9.32,22.62-1.49,2.37-4.27,4.25-7.3,4.76-3.84.63-7.64-.78-10.3-3.39-3.46-3.4-4.2-8.34-4.35-12.68-.15-3.98.73-8.12,2.52-11.7h-.01Z" fill="#fff" stroke-width="0"/>
      <path d="m131.32,800.52c-1.12-.04-2.34-.47-3.19-1.13-1.05-.8-1.8-1.72-2.24-2.88-.34-.88-.54-1.84-.4-2.77.21-1.31.7-2.48,1.51-3.57.69-.94,1.58-1.73,2.42-2.55.52-.48,1.58-.7,2.31-.65.63.04,1.34.3,1.86.67.32,0,.63.04.92.15.78.28,1.6.8,1.93,1.53.77,1.75,1.51,3.55,1.42,5.42-.1,1.82-1.07,3.72-2.77,4.74-1.16.69-2.37,1.07-3.79,1.02h.01Z" fill="#fff" stroke-width="0"/>
      <path d="m59.95-161.99c4.86,3.28,9.62,6.68,14.29,10.26,37.46,28.69,67.11,65.94,93.91,104.42,27.52,39.53,52.48,80.84,81.78,119.11,16.37,21.38,34.21,41.59,53.57,60.33,9.93,9.58,20.21,18.78,30.84,27.58,7.5,6.21,15.2,12.18,22.62,18.5,15.87,13.49,31.22,27.64,46.05,42.27,14.22,14.03,28.36,28.54,40.31,44.61,12.17,16.34,20.57,35.38,27.85,54.3,7.9,20.49,14.58,41.7,18.72,63.3.26,1.39-1.13,3.15-2.56,2.31-26.68-15.47-49.88-36.33-75.43-53.51-11.63-7.83-24.13-14.22-35.79-22-11.69-7.79-22.66-16.81-31.17-28.06-12.76-16.85-23.76-35.26-34.16-53.62-4.86-8.59-9.71-17.32-13.45-26.47-4.41-10.78-7.67-22.12-11.66-33.07-9.68-26.64-20.22-53.14-27.88-80.48-.54-1.94,2.3-4.49,2.97-2.09,8.49,30.33,20.44,59.64,31.04,89.25,3.43,9.58,6.18,19.49,10.44,28.75,4.49,9.77,9.79,19.18,15.21,28.44,5.89,10.08,12.03,20,18.45,29.75,5.2,7.9,10.45,15.96,16.8,23,10.13,11.25,22.83,19.88,35.71,27.67,11.55,6.98,23.12,13.63,34.11,21.46,22.18,15.78,43.12,33.78,66.72,47.47-.85.77-1.71,1.54-2.56,2.31-.89-4.64-1.93-9.25-3.06-13.84-5.55-22.5-13.16-44.66-22.58-65.83-4.25-9.58-8.91-19.05-14.54-27.93-4.45-7.02-9.65-13.56-15.03-19.89-13.68-16.12-28.72-31.11-44.1-45.61-14.1-13.31-28.57-26.3-43.68-38.44-20.4-16.4-39.92-33.69-57.99-52.66-17.69-18.57-33.87-38.48-48.94-59.2-28.06-38.58-52.67-79.51-80.58-118.18-27.58-38.19-58.81-74.29-98.16-100.79-1.71-1.13.04-4.71,1.93-3.43h0ZM489.21,381.48c-8.98-5.82-15.87-15.01-22.19-23.46-8.16-10.89-15.6-22.32-22.92-33.78-6.24-9.76-12.28-19.69-18.89-29.23-9.49-13.68-21.68-25.01-33.77-36.36-8.67-8.14-17.02-16.48-24.75-25.51-6.97-8.14-13.68-16.51-20.29-24.95-16.2-20.66-31.83-41.8-47-63.25-12.6-17.83-25.22-35.82-36.12-54.75-.87-1.5-1.71-3.01-2.53-4.56-1.2-2.22-3.95.25-2.97,2.09,4.17,7.78,8.88,15.28,13.67,22.69,6.43,9.95,13.11,19.76,19.88,29.49,15.1,21.67,30.76,42.99,46.89,63.91,13.06,16.91,26.27,33.99,41.55,49,12.73,12.5,26.54,24.02,37.69,38.02,7.16,8.99,13.11,18.97,19.26,28.66,7.37,11.59,14.74,23.2,22.69,34.4,6.77,9.55,13.92,19.27,22.76,27.08,1.62,1.43,3.33,2.78,5.15,3.95,1.89,1.23,3.62-2.34,1.9-3.46h.01ZM93.35-133.06c-.32,30.14,4.16,60.02,5.74,90.06.99,18.75.52,37.54-.96,56.25-1.61,20.33-4.41,40.6-8.71,60.55-4.32,20.02-10.11,39.87-18.49,58.59-7.49,16.71-17.14,32.88-30.49,45.6-1.5,1.43-3.07,2.82-4.68,4.16.73.22,1.45.43,2.18.63-3.91-10.46-3.15-21.79-1.98-32.7.58-5.47,1.29-10.9,1.71-16.37.43-5.8.39-11.62.18-17.42-.44-11.98-1.69-23.91-2.41-35.89-.66-11.17-.62-22.36.17-33.54,1.54-22.03,5.8-43.78,11.74-65.02,2.97-10.59,6.35-21.04,10.02-31.4,3.06-8.59,6.72-16.91,10.61-25.14,8.27-17.48,17.54-34.49,25.79-51.97.87-1.83,1.71-3.66,2.55-5.52.39-.85.48-2.07-.39-2.68-.78-.55-1.91-.03-2.29.78-7.86,17.5-17.1,34.34-25.5,51.57-4.17,8.56-8.21,17.21-11.66,26.07-3.87,9.91-7.13,20.11-10.19,30.32-6.36,21.31-11.14,43.16-13.31,65.3-1.09,11.11-1.53,22.29-1.2,33.44.36,12.05,1.61,24.04,2.37,36.06.39,6.13.63,12.27.54,18.42-.08,5.55-.65,11.06-1.28,16.55-1.25,11.08-2.81,22.48-.63,33.55.51,2.6,1.24,5.16,2.16,7.65.32.85,1.45,1.24,2.18.63,14.25-11.8,24.84-27.42,32.99-43.88,9.2-18.52,15.61-38.37,20.43-58.44,4.87-20.31,8.12-41,10.12-61.79,1.72-17.95,2.56-36.03,2.11-54.06-.74-29.85-5.33-59.43-6.07-89.28-.1-3.76-.12-7.5-.08-11.26.07-2.59-3.21-2.19-3.22.18h-.01ZM37.98,184.26c5.64-17.57,10.96-35.26,15.97-53.03,5.03-17.84,10.13-35.82,13.63-54.04,4.1-21.33,3.18-43.05,5-64.58,1.8-21.28,5.73-42.38,9.32-63.41,3.63-21.19,7.24-42.4,9.06-63.84.22-2.6.41-5.2.58-7.81.17-2.6-3.13-2.19-3.26.17-1.32,21.34-4.69,42.47-8.25,63.52-3.54,20.98-7.41,41.95-9.86,63.09-2.46,21.34-1.45,42.95-4.39,64.25-1.29,9.32-3.55,18.49-5.81,27.62-2.26,9.11-4.67,18.2-7.17,27.25-5,18.09-10.34,36.08-16.01,53.99-.63,1.98-1.25,3.95-1.9,5.93-.74,2.38,2.33,3.26,3.1.88h0ZM226.47,43.36c21.61-1.95,43.37-2.84,65.08-2.07,21.66.76,43.34,3.13,64.44,8.16,17.37,4.14,34.65,8.89,51.67,14.3,17.92,5.7,35.64,12.28,52.52,20.62,16.12,7.97,31.65,17.57,44.84,29.83,1.56,1.45,3.07,2.93,4.54,4.46.47-1.13.94-2.27,1.39-3.4-20.49,4.06-41.56-1.06-61.62-5.12-10.06-2.04-20.11-3.8-30.34-4.72-10.74-.96-21.45-2.37-32.06-4.31-19.15-3.5-37.86-8.85-56.39-14.7-17.53-5.52-34.91-11.56-51.87-18.63-16.18-6.73-32.38-14.32-46.6-24.66-1.53-1.12-3.03-2.26-4.49-3.46-1.72-1.39-3.48,2.19-1.9,3.47,13.37,10.86,29.21,18.63,44.91,25.51,17.18,7.53,34.87,13.88,52.71,19.65,18.09,5.86,36.33,11.36,54.97,15.2,10.48,2.15,21.05,3.8,31.66,4.98,5.33.59,10.7.94,16.02,1.62,5.09.65,10.15,1.54,15.2,2.49,20.38,3.91,41.26,9.68,62.19,7.7,2.48-.23,4.94-.59,7.38-1.09,1.29-.26,2.52-2.24,1.39-3.4-12.58-12.97-27.7-23.2-43.64-31.62-16.82-8.91-34.58-15.94-52.63-21.96-17.14-5.71-34.57-10.5-52.08-14.94-20.75-5.26-41.87-8.33-63.25-9.51-21.94-1.24-43.99-.69-65.89,1-2.62.21-5.23.43-7.85.66-2.02.17-2.48,4.13-.28,3.92h-.03Zm276,68.45c-16.84-6.54-34.14-11.81-51.61-16.4-17.39-4.57-34.94-8.52-52.45-12.57-18.03-4.16-35.97-8.67-53.87-13.34-18.41-4.8-36.79-9.68-55.18-14.48-18.39-4.79-36.8-9.5-55.28-13.92-2.31-.55-4.61-1.1-6.92-1.64-2.07-.48-3.18,3.36-1.13,3.85,18.48,4.35,36.88,8.99,55.25,13.75,18.49,4.79,36.94,9.71,55.43,14.54,18.02,4.71,36.06,9.38,54.2,13.62,17.44,4.06,34.93,7.94,52.29,12.35,17.47,4.45,34.82,9.44,51.74,15.67,2.15.78,4.3,1.6,6.43,2.44,1.95.76,3.11-3.08,1.13-3.85h-.01ZM176.19-30.46c-7.5,21.66-11.29,44.37-13.92,67.07-2.64,22.73-4.17,45.58-7.35,68.23-3.32,23.53-5.77,47.08-5.41,70.89.18,11.73.94,23.46,2.37,35.11,1.32,10.74,3.29,21.39,4.91,32.08,3.04,20.09,6.13,41.25,16.58,59.06,1.23,2.09,2.56,4.09,4.01,6.02.72.95,2.16.5,2.6-.48,9.36-21.52,6.11-45.73,13.23-67.83,3.52-10.96,8.77-21.24,13.09-31.9,4.3-10.59,7.56-21.63,10.33-32.7,5.71-22.85,9.22-46.64,8.34-70.23-.84-22.51-6.25-44.74-13.41-66.03-7.39-21.94-16.93-43.2-28.44-63.27-1.35-2.34-2.73-4.68-4.13-6.99-.54-.88-1.75-.54-2.31.07-.72.78-.74,1.93-.22,2.79,11.73,19.3,21.41,39.9,29.17,61.1,7.65,20.94,13.7,42.87,15.61,65.15,1.98,23.12-.91,46.68-5.96,69.26-2.46,10.97-5.51,21.83-9.21,32.45-3.76,10.75-8.95,20.94-13.11,31.51-2.11,5.37-3.92,10.85-5.19,16.47-1.24,5.48-1.97,11.07-2.57,16.66-1.24,11.29-1.9,22.76-5.07,33.72-.78,2.68-1.71,5.31-2.82,7.89.87-.17,1.73-.33,2.6-.48-12.17-16.3-15.83-37.47-18.92-57.09-3.43-21.78-7.26-43.46-8.04-65.53-.83-23.27.89-46.55,4.06-69.61,1.56-11.32,3.07-22.63,4.24-34,1.16-11.3,2.16-22.62,3.36-33.92,2.37-22.5,5.51-45.02,12.12-66.7.8-2.64,1.65-5.26,2.56-7.85.83-2.38-2.26-3.25-3.08-.88h-.01Zm4.12,334.06c-1.65-1.35-2.77-3.79-3.55-6.02-1.17-3.32-1.79-6.83-2.27-10.31-1.25-9-1.42-18.16-1.34-27.25.17-17.73,1.75-35.37,3.03-53.04,1.14-15.83,2.11-31.66,3.28-47.5,1.02-13.73,2.37-27.41,3.73-41.09,2.27-22.67,3.85-45.45,4.1-68.26.26-24.42-.67-49.31-6.06-73.23-.61-2.67-1.28-5.31-2.01-7.96-.26-.95-1.45-1.12-2.18-.63-.91.59-1.06,1.76-.78,2.71,6.5,23.5,7.76,48.45,7.79,72.72.03,23.35-1.43,46.71-3.66,69.96-1.23,12.82-2.62,25.61-3.63,38.45-1.25,15.94-2.23,31.88-3.33,47.83-1.29,18.67-3.1,37.3-3.48,56-.19,9.44-.12,18.96.83,28.37.69,6.68,1.56,14.32,5.3,20.09.63.98,1.43,1.87,2.34,2.63,1.71,1.39,3.48-2.18,1.9-3.47h0Z" fill="#06581d" stroke-width="0"/>
      <rect x="1343.27" y="980.46" width="571.02" height="3.17" transform="translate(636.24 2604.44) rotate(-89.63)" fill="#fff" stroke-width="0"/>
      <line x1="1545.51" y1="1267.06" x2="1540.94" y2="670.27" fill="#fff" stroke-width="0"/>
      <line x1="1439.57" y1="1266.37" x2="1431.35" y2="627.3" fill="#fff" stroke-width="0"/>
      <line x1="1356.36" y1="1277.44" x2="1344.78" y2="619.35" fill="#fff" stroke-width="0"/>
      <path d="m1539.3,670.38l3.17-.02,4.58,596.79-3.17.02-4.58-596.79Zm-101.27,596.06l3.17-.04-8.25-639.04-3.17.04,8.25,639.04Zm-83.21,11.05l3.17-.06-11.6-658.09-3.17.06,11.6,658.09Z" fill="#fff" stroke-width="0"/>
      <path d="m1259.28,1073.11c-3.18-135.36-2.3-269.49-4.6-404.71" fill="#fff" stroke-width="0"/>
      <path d="m1260.9,1076.43l-4.64-408.04-3.17.03,4.64,408.32c1.06-.12,2.12-.23,3.17-.3Z" fill="#fff" stroke-width="0"/>
      <path d="m1187.32,1281.63c-.98-174.28-1.96-348.56-3.04-522.53" fill="#fff" stroke-width="0"/>
      <path d="m1182.66,753.09l3.07,528.55,3.17-.03-3.1-532.53c-.99,1.38-2.04,2.73-3.14,4.01h0Z" fill="#fff" stroke-width="0"/>
      <path d="m1096.58,755.06l-1.18,182.41c.5-60.91.92-121.49,1.29-182.3-.04-.03-.07-.07-.11-.11Z" fill="#fff" stroke-width="0"/>
      <path d="m1094.61,1057.75l-1.45,223.26c.61-74.37,1.1-148.74,1.51-223.29-.03,0-.04.03-.07.03Z" fill="#fff" stroke-width="0"/>
      <path d="m1093.02,1058.57l-1.45,222.42h3.17l1.46-224.12c-1.05.59-2.11,1.17-3.18,1.69Z" fill="#fff" stroke-width="0"/>
      <path d="m1095.01,753.27l-1.27,194.85c1.39,3.02,2.4,6.2,3.11,9.44l1.31-200.81c-1.09-1.12-2.13-2.29-3.15-3.47h0Z" fill="#fff" stroke-width="0"/>
      <path d="m1110.55,1045.07l661.37,4.3v-3.17l-658.91-4.28c-.8,1.09-1.62,2.15-2.46,3.15h0Z" fill="#fff" stroke-width="0"/>
      <path d="m1106.35,966.18l413.03,4.34c-137.64-1.62-275.27-3.33-413.04-4.35h.01Z" fill="#fff" stroke-width="0"/>
      <path d="m1519.36,970.52c89,1.05,178.02,2.05,267.08,2.81l-267.08-2.81Z" fill="#fff" stroke-width="0"/>
      <path d="m1108.1,967.78l678.33,7.13.03-3.17-682-7.17c1.25,1.03,2.46,2.11,3.63,3.21Z" fill="#fff" stroke-width="0"/>
      <path d="m1841.74,872.9c-259.88,3.59-520.84,9.29-780.57,12.73" fill="#fff" stroke-width="0"/>
      <path d="m1054.97,887.32l786.79-12.84-.06-3.17-785.57,12.82c-.34,1.07-.74,2.13-1.17,3.19Z" fill="#fff" stroke-width="0"/>
      <line x1="1899.28" y1="795.11" x2="1005.6" y2="797.75" fill="#fff" stroke-width="0"/>
      <path d="m1005.53,795.1l.02-3.17,893.66,5.77-.02,3.17-893.66-5.77Z" fill="#fff" stroke-width="0"/>
      <path d="m1062.79,722.61c-.15-.22-.29-.44-.43-.67-.5-.83-.98-1.67-1.42-2.51l-54.82-.36v3.17l56.67.37h0Z" fill="#fff" stroke-width="0"/>
      <path d="m1195.05,723.47l834.59,5.42v-3.17l-834.3-5.42c-.07,1.06-.18,2.11-.29,3.17h0Z" fill="#fff" stroke-width="0"/>
      <path d="m1189.46,358.43c-18.85,3.48-36.4,1.24-50.99-6.54l1.72-3.21c29.98,16.01,74.8,5.93,106.53-23.97,29.68-27.96,41.4-65.52,33.73-104.51-18.79-3.35-36.11-7.7-51.1-12.89-25.48-8.84-43.34-19.66-53.11-32.17-13.73-17.58-17.99-34.91-11.7-47.54,4.71-9.46,14.61-14.76,27.15-14.57,23.2.36,56.9,20.14,81.9,74.58,4.54,9.88,7.89,19.71,10.02,29.48,8.51,1.46,17.39,2.71,26.56,3.74,59.03,6.66,117.03,2.48,144.33-10.44,12.9-6.1,18.43-13.68,16.44-22.54-4.16-18.49-42.11-53.29-102.95-95.45-41.27-12.62-115.02-47.21-133.03-55.77-66.76-31.73-144.47-72.72-157.32-87.75-.74-.88-3.01-3.52-1.68-5.91,1.25-2.24,4.86-2.73,12.02-1.58,36.5,5.75,125.96,49.33,217.58,105.97,23.03,14.24,44.58,28.31,64.07,41.81,9.21,2.81,16.33,4.35,20.68,4.28.74,0,3.18-.12,3.18-1.02,0-4.69-7.71-19.91-44.39-65.72-25.66-32.06-58.19-70.09-84.32-100.62-14.46-16.89-26.94-31.49-35.81-42.18-4.71-5.69-8.08-9.87-10.28-12.82-3.29-4.36-4.39-6.15-2.95-7.59,1.5-1.47,3.21-.37,8.77,4.52,16.26,14.29,57.63,36.96,101.41,60.97.85.47,1.72.95,2.57,1.42-15.6-16.53-25.87-27.93-26.07-28.14l2.7-2.42c.22.25,13.96,15.49,33.81,36.32,35.78,19.66,74.23,41.12,103.16,60.48,38.37,25.66,54.35,43.64,50.29,56.58-1.17,3.73-3.62,6.1-7.09,6.86-.11.03-.22.04-.33.07-8.26,1.53-22.48-5.64-43.42-21.93-16.45-12.79-36.92-31.13-60.86-54.52-15.85-15.49-31.16-31.2-43.97-44.62-4.21-2.31-8.4-4.61-12.53-6.87-43.61-23.93-81.58-44.74-99.45-59.23,8.62,10.81,25.37,30.4,42.82,50.77,68.28,79.81,129.58,152.75,129.59,168.72,0,1.1-.4,3.1-3.04,4.08-2.89,1.06-8.41.5-15.76-1.24,15.13,10.7,28.9,20.99,40.98,30.69,33.56,26.93,52.12,47.5,55.19,61.1,1.67,7.38-.19,17.99-18.43,26.63-27.85,13.16-86.64,17.5-146.29,10.77-8.67-.98-17.15-2.16-25.37-3.55,2.99,15.86,2.79,31.5-.62,46.77-5.01,22.5-16.97,43.15-34.57,59.71-15.71,14.79-35.24,25.47-55,30.08-1.57.33-3.15.67-4.72.95v-.03Zm-4.72-241.2c-7.78,1.43-13.79,5.62-16.96,12-5.64,11.33-1.5,27.25,11.32,43.68,14.81,18.98,51.42,34.61,100.54,43.48-2.07-9.05-5.18-18.17-9.35-27.26-24.3-52.89-56.57-72.11-78.67-72.46-2.42-.04-4.71.14-6.88.55h0Zm-105.54-172.47c.33,1.38,4.28,7.63,42.51,29.5,25.59,14.65,60.4,32.78,97.99,51.02,49.02,23.79,102.76,47.66,137.66,59.86-16.47-11.17-34.45-22.77-53.72-34.69-91.25-56.43-180.16-99.8-216.24-105.48-5.91-.94-7.74-.44-8.22-.22h.01Zm268.14.14c10.94,11.36,23.23,23.82,35.85,36.17,70.28,68.68,93.49,76.88,101.09,75.47.07-.01.15-.03.22-.04,2.22-.48,3.61-1.87,4.39-4.39,3.4-10.88-13.04-28.53-48.85-52.48-26.09-17.46-60.01-36.66-92.71-54.72h0Z" fill="#fff" stroke-width="0"/>
      <path d="m2223.47,1166.29l-320.21,195.15s-691.32-27.26-728.53-203.4c-37.21-176.14,131.01-330.73,327.11-233.44,196.1,97.28,16.96-101.04,172.93-391.73,155.97-290.69,513.27,8.3,513.27,8.3l35.42,625.12h.01Z" fill="#2c8943" stroke-width="0"/>
      <path d="m1746.44,1176.05c-1.38.34-3.03-1.5-3.69-2.68-.66-1.18-.8-3.83.17-4.9,24.29-27.27,52.07-51.02,78.45-73.02,14.84-12.36,32.96-27.48,52.96-34.28-2.24-.4-4.47-.78-6.72-1.16-13.79-2.27-27.92-4.12-41.56-5.89-17.25-2.23-35.08-4.56-52.49-7.79-34.95-6.51-63.8-16.62-88.16-30.89-31-18.17-57.82-42.88-83.76-66.78-1.16-1.06-1.34-2.41-.61-3.58.87-1.42,3.08-2.44,4.75-1.79,14.81,5.86,30.84,5.37,46.35,4.89,4.91-.15,9.99-.32,14.96-.26,18.9.17,36.92,4.47,53.54,12.86,31.11,15.67,57.82,43.71,79.38,83.33,9.33,1.34,18.83,2.57,28.04,3.77,20.93,2.71,42.57,5.51,63.41,9.95l1.21.25c37.83,8.19,74.36,23.84,106.35,45.57-13.01-16.34-24.93-35.45-36.99-59.21-8.32-16.34-15.97-33.32-23.36-49.74-1.93-4.32-3.88-8.65-5.84-12.94-38.01-2.34-72.07-10.34-104.08-24.45-28.84-12.72-61.32-28.61-81.75-56.43-.66-.91-.77-2.09-.25-3.15.59-1.18,1.84-2.02,3.13-2.05,14.35-.43,27.73,4.42,40.67,9.11,2.45.89,4.93,1.79,7.39,2.64,6.98,2.44,14.18,4.5,21.16,6.5,10.6,3.04,21.55,6.2,32.05,10.68,14.96,6.39,30.21,13.97,45.32,22.54,9.8,5.56,20.02,11.72,29.28,19.26-.74-1.57-1.49-3.13-2.23-4.69-15.9-33.41-32.75-61.24-51.53-85.05-7.67-9.72-16.44-18.98-24.93-27.93-12.89-13.62-26.21-27.69-36.17-43.86-15.63-25.33-17.62-53.65-18.5-85.37-.03-.84.32-1.67.95-2.31.33-.33.7-.61,1.16-.83,1.32-.66,2.78-.55,3.79.26l17.46,14.21c12.02,9.77,24.02,19.54,36,29.35,13.78,11.32,29.09,24.96,36.37,44.03,5.23,13.7,7.35,28.61,9.4,43.04.59,4.1,1.18,8.22,1.83,12.28l.32,1.91c2.88,17.94,5.86,36.48,7.97,54.85,8.77,14.91,17.47,31.73,26.61,51.42,3.66,7.89,7.27,15.87,10.86,23.87,20.09,44.52,40.83,90.52,75.55,125.96-.41-5.04-.37-10.16-.3-15.12.04-3.17.08-6.33-.01-9.47-.36-13.71-3.55-27.55-6.62-40.92l-1.98-8.63c-4.5-19.7-9.17-40.09-11.4-60.64-2.2-20.36-2.88-40.78-2.01-60.7,1.43-32.41,6.48-79.04,33.99-109.68.78-.88,2.08-1.36,3.3-1.2,1.14.15,2.09.78,2.6,1.79,5.01,9.75,5.7,20.24,6.02,31.03.36,12.34,1.82,24.35,4.49,36.73,4.02,18.65,8.32,40.46,8.37,62.94.04,18.82-2,38.82-6.25,61.18-3.47,18.31-8.69,36.4-13.75,53.87-1.24,4.24-2.46,8.47-3.66,12.71-2.95,10.38-2.75,21.34-2.59,31.91.14,8.03.26,16.33-.92,24.46,8.43,7.5,16.36,15.43,23.72,23.64-1.65,1.68-3.33,3.35-5.04,4.98-23.6-26.63-51.45-48.49-83-65.08-20.75-10.89-43.31-19.21-69.01-25.41-.1.12-.19.26-.3.37-6.46,6.92-12.47,14.48-18.28,21.77-4.43,5.56-9.02,11.36-13.78,16.81-11,12.57-23.46,22.21-35.31,30.65-11.08,7.9-24.33,17.04-38.77,23.84-8.12,3.83-16.58,7.43-23.94,10.23-5.34,2.05-10.19,3.51-15.47,4.46-1.5.28-2.74,1.62-4.27,2.01l-.91-3.91.88,3.91Z" fill="#fff" stroke-width="0"/>
    </g>
  </g>
</svg>