<?xml version="1.0" encoding="UTF-8"?>
<svg id="Layer_1" data-name="Layer 1" xmlns="http://www.w3.org/2000/svg" viewBox="0 0 3000 1687.92">
  <path d="m0,0h3000v1687.5H0V0Z" fill="#f9c9c7" stroke-width="0"/>
  <path d="m2878.83,381.19c-2.65.29-5.34.44-8.07.44-2.24,0-4.45-.12-6.63-.31-.61,29.55-10.52,58.46-24.91,84.89,2.63,44.42,15.75,78.18,31.54,78.18s28.91-33.77,31.54-78.18c-13.98-25.84-25.17-59.49-23.47-85.02Zm-8.07-127.95c-30.04,0-54.4,24.36-54.4,54.4s24.36,54.4,54.4,54.4,54.4-24.36,54.4-54.4-24.36-54.4-54.4-54.4Zm59.61,98.23c20.15,21.38,46.46,36.1,74.82,46-28.16-8.39-59.87-24.27-76.72-43.53-3.08,3.83-6.53,7.36-10.3,10.51,20.48,21.31,33.91,48.76,42.42,77.63-9.18-26.05-28.08-54.3-44.96-75.61-9.65,7.37-21.15,12.43-33.7,14.33-.86,29.36,7.33,58.36,20.38,85.42,19.43,40.03,44.47,66.21,59.06,60.16,14.59-6.05,13.79-42.26-.78-84.3,33.27,29.55,66.42,44.15,77.59,32.99,11.17-11.17-3.44-44.32-32.99-77.59,42.04,14.56,78.26,15.37,84.3.78,6.05-14.59-20.14-39.63-60.16-59.06-24.75-11.85-58.42-18.49-85.25-21.67-1.67,12.59-6.51,24.19-13.7,33.96Zm177.15-43.83c0-15.8-33.77-28.91-78.18-31.54,40.03-19.43,66.21-44.47,60.16-59.06s-42.26-13.79-84.3.78c29.55-33.27,44.15-66.42,32.99-77.59-11.17-11.17-44.32,3.44-77.59,32.99,14.56-42.04,15.37-78.26.78-84.3-14.59-6.05-39.63,20.14-59.06,60.16-11.85,24.75-18.49,58.42-21.67,85.25,12.59,1.68,24.19,6.52,33.96,13.71,21.38-20.15,36.1-46.46,46-74.82-8.39,28.16-24.28,59.87-43.53,76.72,3.83,3.08,7.35,6.52,10.51,10.29,21.33-20.46,48.78-33.9,77.63-42.41-25.88,9.12-54.38,28.24-75.61,44.96,7.37,9.65,12.43,21.15,14.33,33.7,29.36.87,58.37-7.33,85.42-20.38-25.84,13.98-59.49,25.17-85.03,23.47.29,2.65.44,5.34.44,8.07,0,2.24-.12,4.44-.31,6.63,29.55.61,58.46,10.52,84.89,24.91,44.42-2.64,78.19-15.76,78.19-31.55Zm-280.57,59.61c-21.38,20.15-36.1,46.46-46,74.82,8.39-28.16,24.28-59.87,43.53-76.72-3.83-3.08-7.35-6.52-10.51-10.29-21.33,20.46-48.78,33.9-77.63,42.41,25.88-9.12,54.38-28.24,75.61-44.96-7.37-9.65-12.43-21.15-14.33-33.7-29.36-.87-58.37,7.33-85.42,20.38-40.03,19.43-66.21,44.47-60.16,59.06s42.26,13.79,84.31-.78c-29.55,33.27-44.15,66.42-32.99,77.59,11.17,11.17,44.32-3.44,77.59-32.99-14.56,42.04-15.37,78.26-.78,84.3,14.59,6.05,39.63-20.14,59.06-60.16,11.85-24.75,18.49-58.42,21.67-85.25-12.61-1.68-24.2-6.51-33.97-13.7Zm35.75-133.15c2.65-.29,5.34-.44,8.07-.44,2.24,0,4.45.12,6.63.31.61-29.55,10.52-58.46,24.91-84.89-2.63-44.42-15.75-78.18-31.54-78.18s-28.91,33.77-31.54,78.18c13.98,25.84,25.17,59.49,23.47,85.02Zm-65.24,63.68c1.68-12.59,6.52-24.19,13.71-33.96-20.15-21.38-46.46-36.1-74.82-46-42.04-14.56-78.26-15.37-84.31-.78s20.14,39.63,60.16,59.06c24.75,11.85,58.42,18.49,85.25,21.67Zm-.23,17.94c-.29-2.65-.44-5.34-.44-8.07,0-2.24.12-4.45.31-6.63-29.55-.61-58.46-10.52-84.89-24.91-44.42,2.63-78.19,15.75-78.19,31.54s33.77,28.91,78.18,31.54c25.84-13.97,59.49-25.17,85.03-23.47Zm15.84-54.36c3.08-3.83,6.53-7.36,10.3-10.51-20.48-21.31-33.91-48.76-42.42-77.63,9.18,26.05,28.08,54.3,44.96,75.61,9.65-7.37,21.15-12.43,33.7-14.33.86-29.36-7.33-58.37-20.38-85.42-19.43-40.03-44.47-66.21-59.06-60.16-14.59,6.05-13.79,42.26.78,84.3-33.27-29.55-66.42-44.15-77.59-32.99-11.17,11.17,3.44,44.32,32.99,77.59,28.16,8.39,59.87,24.27,76.72,43.53Z" fill="#fff" stroke-width="0"/>
  <path d="m157.12,549.03c-3,.33-6.03.5-9.11.5-2.53,0-5.02-.14-7.49-.35-.69,33.36-11.88,66.01-28.12,95.84,2.97,50.15,17.78,88.27,35.61,88.27s32.64-38.13,35.61-88.27c-15.78-29.17-28.41-67.17-26.5-95.99Zm-9.11-144.46c-33.92,0-61.42,27.5-61.42,61.42s27.5,61.42,61.42,61.42,61.42-27.5,61.42-61.42-27.5-61.42-61.42-61.42Zm67.3,110.9c22.75,24.14,52.46,40.75,84.47,51.93-31.79-9.47-67.6-27.4-86.62-49.15-3.48,4.33-7.37,8.31-11.63,11.87,23.12,24.06,38.28,55.05,47.89,87.64-10.36-29.41-31.7-61.31-50.76-85.36-10.9,8.32-23.88,14.04-38.05,16.18-.97,33.15,8.28,65.9,23.01,96.44,21.94,45.19,50.21,74.75,66.68,67.93,16.47-6.83,15.57-47.72-.88-95.18,37.56,33.36,74.99,49.85,87.6,37.24,12.61-12.61-3.88-50.03-37.24-87.6,47.47,16.44,88.36,17.36,95.18.88,6.83-16.47-22.74-44.75-67.93-66.68-27.94-13.38-65.96-20.88-96.25-24.47-1.89,14.22-7.35,27.32-15.47,38.34Zm200-49.48c0-17.84-38.13-32.64-88.27-35.61,45.19-21.94,74.75-50.21,67.93-66.68-6.83-16.47-47.72-15.57-95.18.88,33.36-37.56,49.85-74.99,37.24-87.6-12.61-12.61-50.03,3.88-87.6,37.24,16.44-47.47,17.36-88.36.88-95.18-16.47-6.83-44.75,22.74-66.68,67.93-13.38,27.94-20.88,65.96-24.47,96.25,14.22,1.9,27.32,7.36,38.34,15.48,24.14-22.75,40.75-52.46,51.93-84.47-9.47,31.79-27.41,67.6-49.15,86.62,4.33,3.47,8.3,7.36,11.86,11.62,24.08-23.1,55.07-38.28,87.65-47.88-29.22,10.29-61.4,31.88-85.36,50.76,8.32,10.9,14.04,23.88,16.18,38.05,33.15.98,65.9-8.28,96.44-23.01-29.18,15.78-67.17,28.41-96,26.5.33,3,.5,6.03.5,9.11,0,2.53-.14,5.02-.35,7.49,33.36.69,66.01,11.88,95.84,28.12,50.15-2.98,88.28-17.79,88.28-35.62Zm-316.78,67.31c-24.14,22.75-40.75,52.46-51.93,84.47,9.47-31.79,27.41-67.6,49.15-86.62-4.33-3.47-8.3-7.36-11.86-11.62-24.08,23.1-55.07,38.28-87.65,47.88,29.22-10.29,61.4-31.88,85.36-50.76-8.32-10.9-14.04-23.88-16.18-38.05-33.15-.98-65.9,8.28-96.44,23.01-45.19,21.94-74.75,50.21-67.93,66.68s47.72,15.57,95.19-.88c-33.36,37.56-49.85,74.99-37.24,87.6,12.61,12.61,50.03-3.88,87.6-37.24-16.44,47.47-17.36,88.36-.88,95.18,16.47,6.83,44.75-22.74,66.68-67.93,13.38-27.94,20.88-65.96,24.47-96.25-14.24-1.9-27.32-7.35-38.35-15.47Zm40.36-150.34c3-.33,6.03-.5,9.11-.5,2.53,0,5.02.14,7.49.35.69-33.36,11.88-66.01,28.12-95.84-2.97-50.15-17.78-88.27-35.61-88.27s-32.64,38.13-35.61,88.27c15.78,29.17,28.41,67.17,26.5,95.99Zm-73.66,71.89c1.9-14.22,7.36-27.32,15.48-38.34-22.75-24.14-52.46-40.75-84.47-51.93-47.47-16.44-88.36-17.36-95.19-.88s22.74,44.75,67.93,66.68c27.94,13.38,65.96,20.88,96.25,24.47Zm-.25,20.25c-.33-3-.5-6.03-.5-9.11,0-2.53.14-5.02.35-7.49-33.36-.69-66.01-11.88-95.84-28.12-50.15,2.97-88.28,17.78-88.28,35.61s38.13,32.64,88.27,35.61c29.18-15.77,67.17-28.41,96-26.5Zm17.88-61.37c3.48-4.33,7.37-8.31,11.63-11.87-23.12-24.06-38.28-55.05-47.89-87.64,10.36,29.41,31.7,61.31,50.76,85.36,10.9-8.32,23.88-14.04,38.05-16.18.97-33.15-8.28-65.9-23.01-96.44-21.94-45.19-50.21-74.75-66.68-67.93-16.47,6.83-15.57,47.72.88,95.18-37.56-33.36-74.99-49.85-87.6-37.24-12.61,12.61,3.88,50.03,37.24,87.6,31.79,9.47,67.6,27.4,86.62,49.15Z" fill="#fff" stroke-width="0"/>
  <rect y="193.98" width="427.13" height="551.25" fill="none" stroke-width="0"/>
  <path d="m1174.91,1665.16c-2.49.27-5,.42-7.56.42-2.1,0-4.17-.11-6.21-.29-.57,27.69-9.86,54.78-23.34,79.54,2.47,41.62,14.76,73.26,29.55,73.26s27.09-31.64,29.55-73.26c-13.1-24.21-23.58-55.75-21.99-79.67Zm-7.56-119.89c-28.15,0-50.97,22.82-50.97,50.97s22.82,50.97,50.97,50.97,50.97-22.82,50.97-50.97-22.82-50.97-50.97-50.97Zm55.85,92.04c18.88,20.03,43.54,33.82,70.11,43.1-26.39-7.86-56.1-22.74-71.89-40.79-2.89,3.59-6.12,6.9-9.65,9.85,19.19,19.97,31.77,45.69,39.75,72.74-8.6-24.41-26.31-50.88-42.13-70.85-9.04,6.91-19.82,11.65-31.58,13.43-.81,27.51,6.87,54.69,19.1,80.04,18.21,37.51,41.67,62.04,55.34,56.37,13.67-5.67,12.92-39.6-.73-78.99,31.17,27.69,62.24,41.37,72.7,30.91,10.47-10.47-3.22-41.53-30.91-72.7,39.4,13.65,73.33,14.41,78.99.73,5.67-13.67-18.87-37.14-56.37-55.34-23.19-11.11-54.74-17.33-79.88-20.31-1.57,11.8-6.1,22.67-12.84,31.82Zm165.99-41.07c0-14.8-31.64-27.09-73.26-29.55,37.51-18.21,62.04-41.67,56.37-55.34-5.67-13.67-39.6-12.92-78.99.73,27.69-31.17,41.37-62.24,30.91-72.7-10.47-10.47-41.53,3.22-72.7,30.91,13.65-39.4,14.41-73.33.73-78.99-13.67-5.67-37.14,18.87-55.34,56.37-11.11,23.19-17.33,54.74-20.31,79.88,11.8,1.57,22.67,6.11,31.82,12.85,20.03-18.88,33.82-43.54,43.1-70.11-7.86,26.39-22.75,56.1-40.79,71.89,3.59,2.88,6.89,6.11,9.84,9.65,19.99-19.17,45.7-31.77,72.74-39.74-24.25,8.54-50.96,26.46-70.85,42.13,6.91,9.04,11.65,19.82,13.43,31.58,27.51.81,54.7-6.87,80.04-19.1-24.22,13.1-55.75,23.58-79.67,22,.27,2.49.42,5,.42,7.56,0,2.1-.11,4.17-.29,6.21,27.69.57,54.78,9.86,79.54,23.34,41.62-2.47,73.27-14.76,73.27-29.57Zm-262.9,55.86c-20.03,18.88-33.82,43.54-43.1,70.11,7.86-26.39,22.75-56.1,40.79-71.89-3.59-2.88-6.89-6.11-9.84-9.65-19.99,19.17-45.7,31.77-72.74,39.74,24.25-8.54,50.96-26.46,70.85-42.13-6.91-9.04-11.65-19.82-13.43-31.58-27.51-.81-54.7,6.87-80.04,19.1-37.51,18.21-62.04,41.67-56.37,55.34,5.67,13.67,39.6,12.92,79-.73-27.69,31.17-41.37,62.24-30.91,72.7,10.47,10.47,41.53-3.22,72.7-30.91-13.65,39.4-14.41,73.33-.73,78.99,13.67,5.67,37.14-18.87,55.34-56.37,11.11-23.19,17.33-54.74,20.31-79.88-11.81-1.57-22.68-6.1-31.83-12.84Zm33.5-124.77c2.49-.27,5-.42,7.56-.42,2.1,0,4.17.11,6.21.29.57-27.69,9.86-54.78,23.34-79.54-2.47-41.62-14.76-73.26-29.55-73.26s-27.09,31.64-29.55,73.26c13.1,24.21,23.58,55.75,21.99,79.67Zm-61.13,59.67c1.57-11.8,6.11-22.67,12.85-31.82-18.88-20.03-43.54-33.82-70.11-43.1-39.4-13.65-73.33-14.41-79-.73-5.67,13.67,18.87,37.14,56.37,55.34,23.19,11.11,54.74,17.33,79.88,20.31Zm-.21,16.81c-.27-2.49-.42-5-.42-7.56,0-2.1.11-4.17.29-6.21-27.69-.57-54.78-9.86-79.54-23.34-41.62,2.47-73.27,14.76-73.27,29.55s31.64,27.09,73.26,29.55c24.22-13.09,55.75-23.58,79.67-21.99Zm14.84-50.93c2.89-3.59,6.12-6.9,9.65-9.85-19.19-19.97-31.77-45.69-39.75-72.74,8.6,24.41,26.31,50.88,42.13,70.85,9.04-6.91,19.82-11.65,31.58-13.43.81-27.51-6.87-54.69-19.1-80.04-18.21-37.51-41.67-62.04-55.34-56.37-13.67,5.67-12.92,39.6.73,78.99-31.17-27.69-62.24-41.37-72.7-30.91-10.47,10.47,3.22,41.53,30.91,72.7,26.39,7.86,56.1,22.74,71.89,40.79Z" fill="#fff" stroke-width="0"/>
  <path d="m1952.2,418.4c-2.09.23-4.2.35-6.35.35-1.76,0-3.5-.09-5.22-.24-.48,23.1-8.27,45.71-19.59,66.37,2.07,34.73,12.38,61.13,24.8,61.13s22.73-26.4,24.8-61.13c-10.99-20.2-19.79-46.52-18.45-66.48Zm-6.35-100.04c-23.62,0-42.78,19.04-42.78,42.53s19.15,42.53,42.78,42.53,42.78-19.04,42.78-42.53-19.15-42.53-42.78-42.53Zm46.87,76.8c15.85,16.72,36.54,28.22,58.83,35.96-22.14-6.56-47.08-18.98-60.33-34.04-2.42,3-5.13,5.75-8.1,8.22,16.1,16.66,26.66,38.13,33.36,60.69-7.22-20.37-22.08-42.46-35.35-59.12-7.59,5.76-16.63,9.72-26.5,11.2-.68,22.95,5.76,45.63,16.03,66.78,15.28,31.3,34.97,51.77,46.44,47.04,11.47-4.73,10.84-33.04-.62-65.91,26.16,23.1,52.23,34.52,61.01,25.79,8.78-8.73-2.7-34.65-25.94-60.67,33.06,11.39,61.54,12.02,66.29.61,4.75-11.41-15.83-30.99-47.31-46.18-19.46-9.27-45.94-14.46-67.04-16.95-1.31,9.85-5.12,18.92-10.77,26.55Zm139.3-34.27c0-12.35-26.55-22.6-61.48-24.66,31.48-15.19,52.06-34.77,47.31-46.18-4.76-11.41-33.23-10.78-66.29.61,23.24-26.01,34.72-51.93,25.94-60.67-8.78-8.73-34.85,2.69-61.01,25.79,11.45-32.87,12.09-61.19.62-65.91-11.47-4.73-31.16,15.74-46.44,47.04-9.32,19.35-14.54,45.68-17.04,66.66,9.9,1.31,19.02,5.1,26.7,10.72,16.81-15.76,28.38-36.33,36.17-58.5-6.6,22.02-19.09,46.81-34.23,59.99,3.01,2.41,5.78,5.1,8.26,8.05,16.77-16,38.36-26.51,61.05-33.16-20.35,7.13-42.77,22.08-59.45,35.15,5.8,7.55,9.78,16.54,11.27,26.35,23.09.68,45.9-5.73,67.17-15.94-20.32,10.93-46.78,19.68-66.86,18.35.23,2.07.35,4.18.35,6.31,0,1.75-.09,3.48-.24,5.19,23.24.47,45.97,8.23,66.75,19.47,34.93-2.06,61.49-12.32,61.49-24.67Zm-220.63,46.61c-16.81,15.76-28.38,36.33-36.17,58.5,6.6-22.02,19.09-46.81,34.23-59.99-3.01-2.41-5.78-5.1-8.26-8.05-16.77,16-38.35,26.51-61.05,33.16,20.35-7.13,42.77-22.08,59.45-35.15-5.8-7.55-9.78-16.54-11.27-26.35-23.09-.68-45.9,5.73-67.17,15.94-31.48,15.19-52.06,34.77-47.31,46.18,4.75,11.41,33.23,10.78,66.3-.61-23.24,26.01-34.72,51.93-25.94,60.67,8.78,8.73,34.85-2.69,61.01-25.79-11.45,32.87-12.09,61.19-.62,65.91,11.47,4.73,31.16-15.74,46.44-47.04,9.32-19.35,14.54-45.68,17.04-66.66-9.91-1.31-19.03-5.09-26.71-10.71Zm28.11-104.11c2.09-.23,4.2-.35,6.35-.35,1.76,0,3.5.09,5.22.24.48-23.1,8.27-45.71,19.59-66.37-2.07-34.73-12.38-61.13-24.8-61.13s-22.73,26.4-24.8,61.13c10.99,20.2,19.79,46.52,18.45,66.48Zm-51.3,49.79c1.32-9.85,5.13-18.92,10.78-26.55-15.85-16.72-36.54-28.22-58.83-35.96-33.06-11.39-61.54-12.02-66.3-.61-4.75,11.41,15.83,30.99,47.31,46.18,19.46,9.27,45.94,14.46,67.04,16.95Zm-.18,14.02c-.23-2.07-.35-4.18-.35-6.31,0-1.75.09-3.48.24-5.19-23.24-.47-45.97-8.23-66.75-19.47-34.93,2.06-61.49,12.31-61.49,24.66s26.55,22.6,61.48,24.66c20.32-10.92,46.78-19.68,66.86-18.35Zm12.46-42.5c2.42-3,5.13-5.75,8.1-8.22-16.1-16.66-26.66-38.13-33.36-60.69,7.22,20.37,22.08,42.46,35.35,59.12,7.59-5.76,16.63-9.72,26.5-11.2.68-22.95-5.76-45.64-16.03-66.78-15.28-31.3-34.97-51.77-46.44-47.04-11.47,4.73-10.84,33.04.62,65.91-26.16-23.1-52.23-34.52-61.01-25.79s2.7,34.65,25.94,60.67c22.14,6.56,47.08,18.98,60.33,34.04Z" fill="#fff" stroke-width="0"/>
  <path d="m2445.56,1405.27c-2.09.23-4.2.35-6.35.35-1.76,0-3.5-.09-5.22-.24-.48,23.1-8.27,45.71-19.59,66.37,2.07,34.73,12.38,61.13,24.8,61.13s22.73-26.4,24.8-61.13c-10.99-20.2-19.79-46.52-18.45-66.48Zm-6.35-100.04c-23.62,0-42.78,19.04-42.78,42.53s19.15,42.53,42.78,42.53,42.78-19.04,42.78-42.53-19.15-42.53-42.78-42.53Zm46.87,76.8c15.85,16.72,36.54,28.22,58.83,35.96-22.14-6.56-47.08-18.98-60.33-34.04-2.42,3-5.13,5.75-8.1,8.22,16.1,16.66,26.67,38.13,33.36,60.69-7.22-20.37-22.08-42.46-35.35-59.12-7.59,5.76-16.63,9.72-26.5,11.2-.68,22.95,5.76,45.63,16.03,66.78,15.28,31.3,34.97,51.77,46.44,47.04,11.47-4.73,10.84-33.04-.62-65.91,26.16,23.1,52.23,34.52,61.01,25.79,8.78-8.73-2.7-34.65-25.94-60.67,33.06,11.39,61.54,12.02,66.29.61,4.75-11.41-15.83-30.99-47.31-46.18-19.46-9.27-45.94-14.46-67.04-16.95-1.31,9.85-5.12,18.92-10.77,26.55Zm139.3-34.27c0-12.35-26.55-22.6-61.48-24.66,31.48-15.19,52.06-34.77,47.31-46.18-4.75-11.41-33.23-10.78-66.29.61,23.24-26.01,34.72-51.93,25.94-60.67-8.78-8.73-34.85,2.69-61.01,25.79,11.45-32.87,12.09-61.19.62-65.91-11.47-4.73-31.16,15.74-46.44,47.04-9.32,19.35-14.54,45.68-17.04,66.66,9.9,1.31,19.02,5.1,26.7,10.72,16.81-15.76,28.39-36.33,36.17-58.5-6.6,22.02-19.09,46.81-34.23,59.99,3.01,2.41,5.78,5.1,8.26,8.05,16.77-16,38.35-26.51,61.05-33.16-20.35,7.13-42.77,22.08-59.46,35.15,5.8,7.55,9.78,16.54,11.27,26.35,23.09.68,45.9-5.73,67.17-15.94-20.32,10.93-46.78,19.68-66.86,18.35.23,2.07.35,4.18.35,6.31,0,1.75-.09,3.48-.24,5.19,23.24.47,45.97,8.23,66.75,19.47,34.93-2.06,61.49-12.32,61.49-24.67Zm-220.63,46.61c-16.81,15.76-28.39,36.33-36.17,58.5,6.6-22.02,19.09-46.81,34.23-59.99-3.01-2.41-5.78-5.1-8.26-8.05-16.77,16-38.35,26.51-61.05,33.16,20.35-7.13,42.77-22.08,59.45-35.15-5.8-7.55-9.78-16.54-11.27-26.35-23.09-.68-45.9,5.73-67.17,15.94-31.48,15.19-52.06,34.77-47.31,46.18,4.75,11.41,33.23,10.78,66.3-.61-23.24,26.01-34.72,51.93-25.94,60.67,8.78,8.73,34.85-2.69,61.01-25.79-11.45,32.87-12.09,61.19-.62,65.91,11.47,4.73,31.16-15.74,46.44-47.04,9.32-19.35,14.54-45.68,17.04-66.66-9.91-1.31-19.03-5.09-26.71-10.71Zm28.11-104.11c2.09-.23,4.2-.35,6.35-.35,1.76,0,3.5.09,5.22.24.48-23.1,8.27-45.71,19.59-66.37-2.07-34.73-12.38-61.13-24.8-61.13s-22.73,26.4-24.8,61.13c10.99,20.2,19.79,46.52,18.45,66.48Zm-51.3,49.79c1.32-9.85,5.13-18.92,10.78-26.55-15.85-16.72-36.54-28.22-58.83-35.96-33.06-11.39-61.54-12.02-66.3-.61-4.75,11.41,15.83,30.99,47.31,46.18,19.46,9.27,45.94,14.46,67.04,16.95Zm-.18,14.02c-.23-2.07-.35-4.18-.35-6.31,0-1.75.09-3.48.24-5.19-23.24-.47-45.97-8.23-66.75-19.47-34.93,2.06-61.49,12.31-61.49,24.66s26.55,22.6,61.48,24.66c20.32-10.92,46.78-19.68,66.86-18.35Zm12.46-42.5c2.42-3,5.13-5.75,8.1-8.22-16.1-16.66-26.67-38.13-33.36-60.69,7.22,20.37,22.08,42.46,35.35,59.12,7.59-5.77,16.63-9.72,26.5-11.2.68-22.95-5.76-45.64-16.03-66.78-15.28-31.3-34.97-51.77-46.44-47.04s-10.84,33.04.62,65.91c-26.16-23.1-52.23-34.52-61.01-25.79-8.78,8.73,2.7,34.65,25.94,60.67,22.14,6.56,47.08,18.98,60.33,34.04Z" fill="#fff" stroke-width="0"/>
  <path d="m5.93,1434.26c-1.64.18-3.3.27-4.99.27-1.38,0-2.75-.07-4.1-.19-.38,18.16-6.51,35.92-15.41,52.16,1.63,27.29,9.74,48.04,19.51,48.04s17.88-20.75,19.51-48.04c-8.65-15.88-15.57-36.55-14.51-52.24Zm-4.99-78.62c-18.58,0-33.65,14.97-33.65,33.42s15.06,33.42,33.65,33.42,33.65-14.97,33.65-33.42-15.06-33.42-33.65-33.42Zm36.87,60.36c12.46,13.14,28.74,22.18,46.28,28.26-17.42-5.15-37.03-14.91-47.45-26.75-1.91,2.35-4.04,4.52-6.37,6.46,12.66,13.09,20.97,29.96,26.24,47.7-5.68-16.01-17.37-33.36-27.81-46.46-5.97,4.53-13.08,7.64-20.85,8.8-.53,18.04,4.53,35.86,12.61,52.48,12.02,24.59,27.51,40.68,36.53,36.97,9.02-3.72,8.53-25.97-.48-51.8,20.58,18.16,41.08,27.13,47.99,20.27,6.91-6.86-2.13-27.23-20.4-47.67,26.01,8.95,48.41,9.45,52.14.48,3.74-8.97-12.45-24.35-37.21-36.29-15.31-7.28-36.13-11.36-52.73-13.32-1.03,7.74-4.03,14.87-8.47,20.87Zm109.57-26.93c0-9.71-20.89-17.76-48.36-19.38,24.76-11.94,40.95-27.33,37.21-36.29-3.74-8.97-26.14-8.47-52.14.48,18.28-20.44,27.31-40.81,20.4-47.67-6.91-6.86-27.41,2.11-47.99,20.27,9.01-25.83,9.51-48.09.48-51.8-9.02-3.72-24.51,12.37-36.53,36.97-7.33,15.21-11.44,35.9-13.41,52.38,7.79,1.03,14.96,4.01,21,8.42,13.22-12.38,22.33-28.55,28.45-45.97-5.19,17.3-15.02,36.79-26.93,47.14,2.37,1.89,4.55,4.01,6.5,6.33,13.19-12.57,30.17-20.83,48.02-26.06-16.01,5.6-33.64,17.35-46.77,27.62,4.56,5.93,7.69,13,8.86,20.71,18.16.53,36.1-4.5,52.83-12.52-15.99,8.59-36.8,15.46-52.59,14.42.18,1.63.27,3.28.27,4.96,0,1.37-.07,2.73-.19,4.08,18.28.37,36.16,6.46,52.5,15.3,27.48-1.62,48.36-9.68,48.36-19.39Zm-173.54,36.63c-13.22,12.38-22.33,28.55-28.45,45.97,5.19-17.3,15.02-36.79,26.93-47.14-2.37-1.89-4.55-4.01-6.5-6.33-13.19,12.57-30.17,20.83-48.02,26.06,16.01-5.6,33.64-17.35,46.77-27.62-4.56-5.93-7.69-13-8.86-20.71-18.16-.53-36.1,4.5-52.83,12.52-24.76,11.94-40.95,27.33-37.21,36.29,3.74,8.97,26.14,8.47,52.15-.48-18.28,20.44-27.31,40.81-20.4,47.67,6.91,6.86,27.41-2.11,47.99-20.27-9.01,25.83-9.51,48.09-.48,51.8,9.02,3.72,24.51-12.37,36.53-36.97,7.33-15.21,11.44-35.9,13.41-52.38-7.8-1.03-14.97-4-21.01-8.42Zm22.11-81.82c1.64-.18,3.3-.27,4.99-.27,1.38,0,2.75.07,4.1.19.38-18.16,6.51-35.92,15.41-52.16-1.63-27.29-9.74-48.04-19.51-48.04s-17.88,20.75-19.51,48.04c8.65,15.88,15.57,36.55,14.51,52.24Zm-40.35,39.13c1.04-7.74,4.03-14.87,8.48-20.87-12.46-13.14-28.74-22.18-46.28-28.26-26.01-8.95-48.41-9.45-52.15-.48-3.74,8.97,12.45,24.35,37.21,36.29,15.31,7.28,36.13,11.36,52.73,13.32Zm-.14,11.02c-.18-1.63-.27-3.28-.27-4.96,0-1.37.07-2.73.19-4.08-18.28-.37-36.16-6.46-52.5-15.3-27.48,1.62-48.36,9.68-48.36,19.38s20.89,17.76,48.36,19.38c15.99-8.58,36.8-15.46,52.59-14.42Zm9.8-33.4c1.91-2.35,4.04-4.52,6.37-6.46-12.66-13.09-20.97-29.96-26.24-47.7,5.68,16.01,17.37,33.36,27.81,46.46,5.97-4.53,13.08-7.64,20.85-8.8.53-18.04-4.53-35.87-12.61-52.48-12.02-24.59-27.51-40.68-36.53-36.97-9.02,3.72-8.53,25.97.48,51.8-20.58-18.16-41.08-27.13-47.99-20.27-6.91,6.86,2.13,27.23,20.4,47.67,17.42,5.15,37.03,14.91,47.45,26.75Z" fill="#fff" stroke-width="0"/>
  <path d="m1955.51,1733.64c-1.14.12-2.29.19-3.46.19-.96,0-1.91-.05-2.84-.13-.26,12.62-4.51,24.97-10.68,36.25,1.13,18.97,6.75,33.39,13.53,33.39s12.4-14.42,13.53-33.39c-6-11.03-10.79-25.41-10.07-36.31Zm-3.46-54.64c-12.89,0-23.33,10.4-23.33,23.23s10.45,23.23,23.33,23.23,23.33-10.4,23.33-23.23-10.45-23.23-23.33-23.23Zm25.57,41.95c8.64,9.13,19.93,15.41,32.09,19.64-12.08-3.58-25.68-10.36-32.91-18.59-1.32,1.64-2.8,3.14-4.42,4.49,8.78,9.1,14.54,20.82,18.19,33.15-3.94-11.12-12.04-23.19-19.28-32.29-4.14,3.15-9.07,5.31-14.46,6.12-.37,12.54,3.14,24.92,8.74,36.48,8.33,17.09,19.07,28.27,25.33,25.69,6.26-2.58,5.91-18.05-.34-36,14.27,12.62,28.49,18.86,33.28,14.09,4.79-4.77-1.47-18.92-14.15-33.13,18.03,6.22,33.57,6.57,36.16.33,2.59-6.23-8.64-16.92-25.81-25.22-10.62-5.06-25.06-7.9-36.57-9.26-.72,5.38-2.79,10.33-5.88,14.5Zm75.98-18.72c0-6.75-14.48-12.34-33.53-13.47,17.17-8.3,28.4-18.99,25.81-25.22-2.59-6.23-18.13-5.89-36.16.33,12.67-14.21,18.94-28.36,14.15-33.13-4.79-4.77-19.01,1.47-33.28,14.09,6.25-17.95,6.59-33.42.34-36-6.26-2.58-17,8.6-25.33,25.69-5.08,10.57-7.93,24.95-9.3,36.41,5.4.72,10.38,2.78,14.57,5.85,9.17-8.61,15.48-19.84,19.73-31.95-3.6,12.02-10.41,25.57-18.67,32.76,1.64,1.31,3.15,2.78,4.51,4.4,9.15-8.74,20.92-14.48,33.3-18.11-11.1,3.89-23.33,12.06-32.43,19.2,3.16,4.12,5.33,9.03,6.15,14.39,12.59.37,25.04-3.13,36.64-8.7-11.09,5.97-25.52,10.75-36.47,10.02.12,1.13.19,2.28.19,3.45,0,.96-.05,1.9-.13,2.83,12.67.26,25.08,4.49,36.41,10.64,19.05-1.13,33.54-6.73,33.54-13.47Zm-120.34,25.46c-9.17,8.61-15.48,19.84-19.73,31.95,3.6-12.02,10.41-25.57,18.67-32.76-1.64-1.31-3.15-2.78-4.51-4.4-9.15,8.74-20.92,14.48-33.3,18.11,11.1-3.89,23.33-12.06,32.43-19.2-3.16-4.12-5.33-9.03-6.15-14.39-12.59-.37-25.04,3.13-36.64,8.7-17.17,8.3-28.4,18.99-25.81,25.22,2.59,6.23,18.13,5.89,36.16-.33-12.67,14.21-18.94,28.36-14.15,33.13,4.79,4.77,19.01-1.47,33.28-14.09-6.25,17.95-6.59,33.42-.34,36,6.26,2.58,17-8.6,25.33-25.69,5.08-10.57,7.93-24.95,9.3-36.41-5.41-.72-10.38-2.78-14.57-5.85Zm15.33-56.86c1.14-.12,2.29-.19,3.46-.19.96,0,1.91.05,2.84.13.26-12.62,4.51-24.97,10.68-36.25-1.13-18.97-6.75-33.39-13.53-33.39s-12.4,14.42-13.53,33.39c6,11.03,10.79,25.41,10.07,36.31Zm-27.98,27.19c.72-5.38,2.8-10.33,5.88-14.5-8.64-9.13-19.93-15.41-32.09-19.64-18.03-6.22-33.57-6.57-36.16-.33-2.59,6.23,8.64,16.92,25.81,25.22,10.62,5.06,25.06,7.9,36.57,9.26Zm-.1,7.66c-.12-1.13-.19-2.28-.19-3.45,0-.96.05-1.9.13-2.83-12.67-.26-25.08-4.49-36.41-10.64-19.05,1.12-33.54,6.72-33.54,13.47s14.48,12.34,33.53,13.47c11.09-5.97,25.52-10.75,36.47-10.02Zm6.79-23.21c1.32-1.64,2.8-3.14,4.42-4.49-8.78-9.1-14.54-20.82-18.19-33.15,3.94,11.12,12.04,23.19,19.28,32.29,4.14-3.15,9.07-5.31,14.46-6.12.37-12.54-3.14-24.93-8.74-36.48-8.33-17.09-19.07-28.27-25.33-25.69-6.26,2.58-5.91,18.05.34,36-14.27-12.62-28.49-18.86-33.28-14.09-4.79,4.77,1.47,18.92,14.15,33.13,12.08,3.58,25.68,10.36,32.91,18.59Z" fill="#fff" stroke-width="0"/>
  <path d="m2926.34,1189.27c-1.14.12-2.29.19-3.46.19-.96,0-1.91-.05-2.84-.13-.26,12.62-4.51,24.97-10.68,36.25,1.13,18.97,6.75,33.39,13.53,33.39s12.4-14.42,13.53-33.39c-6-11.03-10.79-25.41-10.07-36.31Zm-3.46-54.64c-12.89,0-23.33,10.4-23.33,23.23s10.45,23.23,23.33,23.23,23.33-10.4,23.33-23.23-10.45-23.23-23.33-23.23Zm25.57,41.95c8.64,9.13,19.93,15.41,32.09,19.64-12.08-3.58-25.68-10.36-32.91-18.59-1.32,1.64-2.8,3.14-4.42,4.49,8.78,9.1,14.54,20.82,18.19,33.15-3.94-11.12-12.04-23.19-19.28-32.29-4.14,3.15-9.07,5.31-14.46,6.12-.37,12.54,3.14,24.92,8.74,36.48,8.33,17.09,19.07,28.27,25.33,25.69s5.91-18.05-.34-36c14.27,12.62,28.49,18.86,33.28,14.09,4.79-4.77-1.47-18.92-14.15-33.13,18.03,6.22,33.57,6.57,36.16.33,2.59-6.23-8.64-16.92-25.81-25.22-10.62-5.06-25.06-7.9-36.57-9.26-.72,5.38-2.79,10.33-5.88,14.5Zm75.98-18.72c0-6.75-14.48-12.34-33.53-13.47,17.17-8.3,28.4-18.99,25.81-25.22-2.59-6.23-18.13-5.89-36.16.33,12.67-14.21,18.94-28.36,14.15-33.13-4.79-4.77-19.01,1.47-33.28,14.09,6.25-17.95,6.59-33.42.34-36-6.26-2.58-17,8.6-25.33,25.69-5.08,10.57-7.93,24.95-9.3,36.41,5.4.72,10.38,2.78,14.57,5.85,9.17-8.61,15.48-19.84,19.73-31.95-3.6,12.02-10.41,25.57-18.67,32.76,1.64,1.31,3.15,2.78,4.51,4.4,9.15-8.74,20.92-14.48,33.3-18.11-11.1,3.89-23.33,12.06-32.43,19.2,3.16,4.12,5.33,9.03,6.15,14.39,12.59.37,25.04-3.13,36.64-8.7-11.09,5.97-25.52,10.75-36.47,10.02.12,1.13.19,2.28.19,3.45,0,.96-.05,1.9-.13,2.83,12.67.26,25.08,4.49,36.41,10.64,19.05-1.13,33.54-6.73,33.54-13.47Zm-120.34,25.46c-9.17,8.6-15.48,19.84-19.73,31.95,3.6-12.02,10.41-25.57,18.67-32.76-1.64-1.31-3.15-2.78-4.51-4.4-9.15,8.74-20.92,14.48-33.3,18.11,11.1-3.89,23.33-12.06,32.43-19.2-3.16-4.12-5.33-9.03-6.15-14.39-12.59-.37-25.04,3.13-36.64,8.7-17.17,8.3-28.4,18.99-25.81,25.22s18.13,5.89,36.16-.33c-12.67,14.21-18.94,28.36-14.15,33.13,4.79,4.77,19.01-1.47,33.28-14.09-6.25,17.95-6.59,33.42-.34,36,6.26,2.58,17-8.6,25.33-25.69,5.08-10.57,7.93-24.95,9.3-36.41-5.41-.72-10.38-2.78-14.57-5.85Zm15.33-56.86c1.14-.12,2.29-.19,3.46-.19.96,0,1.91.05,2.84.13.26-12.62,4.51-24.97,10.68-36.25-1.13-18.97-6.75-33.39-13.53-33.39s-12.4,14.42-13.53,33.39c6,11.03,10.79,25.41,10.07,36.31Zm-27.98,27.19c.72-5.38,2.8-10.33,5.88-14.5-8.64-9.13-19.93-15.41-32.09-19.64-18.03-6.22-33.57-6.57-36.16-.33-2.59,6.23,8.64,16.92,25.81,25.22,10.62,5.06,25.06,7.9,36.57,9.26Zm-.1,7.66c-.12-1.13-.19-2.28-.19-3.45,0-.96.05-1.9.13-2.83-12.67-.26-25.08-4.49-36.41-10.64-19.05,1.12-33.54,6.72-33.54,13.47s14.48,12.34,33.53,13.47c11.09-5.97,25.52-10.75,36.47-10.02Zm6.79-23.21c1.32-1.64,2.8-3.14,4.42-4.49-8.78-9.1-14.54-20.82-18.19-33.15,3.94,11.12,12.04,23.19,19.28,32.29,4.14-3.15,9.07-5.31,14.46-6.12.37-12.54-3.14-24.93-8.74-36.48-8.33-17.09-19.07-28.27-25.33-25.69-6.26,2.58-5.91,18.05.34,36-14.27-12.62-28.49-18.86-33.28-14.09-4.79,4.77,1.47,18.92,14.15,33.13,12.08,3.58,25.68,10.36,32.91,18.59Z" fill="#fff" stroke-width="0"/>
  <path d="m2857.8,1550.5c-.75.08-1.51.12-2.28.12-.63,0-1.26-.03-1.88-.09-.17,8.31-2.98,16.43-7.04,23.86.74,12.49,4.45,21.98,8.92,21.98s8.18-9.49,8.92-21.98c-3.95-7.26-7.12-16.72-6.64-23.9Zm-2.28-35.97c-8.5,0-15.39,6.85-15.39,15.29s6.89,15.29,15.39,15.29,15.39-6.85,15.39-15.29-6.89-15.29-15.39-15.29Zm16.86,27.61c5.7,6.01,13.14,10.15,21.16,12.93-7.96-2.36-16.93-6.82-21.7-12.24-.87,1.08-1.85,2.07-2.91,2.96,5.79,5.99,9.59,13.71,12,21.82-2.6-7.32-7.94-15.26-12.72-21.25-2.73,2.07-5.98,3.49-9.53,4.03-.24,8.25,2.07,16.41,5.77,24.01,5.5,11.25,12.58,18.61,16.71,16.91,4.13-1.7,3.9-11.88-.22-23.7,9.41,8.31,18.79,12.41,21.95,9.27s-.97-12.46-9.33-21.81c11.89,4.09,22.14,4.32,23.84.22,1.71-4.1-5.7-11.14-17.02-16.6-7-3.33-16.52-5.2-24.11-6.09-.47,3.54-1.84,6.8-3.88,9.55Zm50.1-12.32c0-4.44-9.55-8.13-22.11-8.87,11.32-5.46,18.73-12.5,17.02-16.6-1.71-4.1-11.95-3.88-23.84.22,8.36-9.35,12.49-18.67,9.33-21.81-3.16-3.14-12.53.97-21.95,9.27,4.12-11.82,4.35-22,.22-23.7-4.13-1.7-11.21,5.66-16.71,16.91-3.35,6.96-5.23,16.42-6.13,23.97,3.56.47,6.84,1.83,9.6,3.85,6.05-5.66,10.21-13.06,13.01-21.03-2.37,7.92-6.87,16.83-12.31,21.57,1.08.86,2.08,1.83,2.97,2.89,6.03-5.75,13.8-9.53,21.96-11.92-7.32,2.56-15.38,7.94-21.38,12.64,2.09,2.71,3.52,5.95,4.05,9.47,8.3.24,16.51-2.06,24.16-5.73-7.31,3.93-16.83,7.07-24.05,6.6.08.75.13,1.5.13,2.27,0,.63-.03,1.25-.09,1.86,8.36.17,16.54,2.96,24.01,7,12.56-.74,22.12-4.43,22.12-8.87Zm-79.36,16.76c-6.05,5.66-10.21,13.06-13.01,21.03,2.37-7.92,6.87-16.83,12.31-21.57-1.08-.86-2.08-1.83-2.97-2.89-6.03,5.75-13.8,9.53-21.96,11.92,7.32-2.56,15.38-7.94,21.39-12.64-2.09-2.71-3.52-5.95-4.05-9.47-8.3-.24-16.51,2.06-24.16,5.73-11.32,5.46-18.73,12.5-17.02,16.6,1.71,4.1,11.95,3.88,23.85-.22-8.36,9.35-12.49,18.67-9.33,21.81,3.16,3.14,12.53-.97,21.95-9.27-4.12,11.82-4.35,22-.22,23.7,4.13,1.7,11.21-5.66,16.71-16.91,3.35-6.96,5.23-16.42,6.13-23.97-3.57-.47-6.84-1.83-9.61-3.85Zm10.11-37.43c.75-.08,1.51-.12,2.28-.12.63,0,1.26.03,1.88.09.17-8.31,2.98-16.43,7.04-23.86-.74-12.49-4.45-21.98-8.92-21.98s-8.18,9.49-8.92,21.98c3.95,7.26,7.12,16.72,6.64,23.9Zm-18.45,17.9c.47-3.54,1.84-6.8,3.88-9.55-5.7-6.01-13.14-10.15-21.16-12.93-11.89-4.09-22.14-4.32-23.85-.22-1.71,4.1,5.7,11.14,17.02,16.6,7,3.33,16.52,5.2,24.11,6.09Zm-.06,5.04c-.08-.75-.13-1.5-.13-2.27,0-.63.03-1.25.09-1.86-8.36-.17-16.54-2.96-24.01-7-12.56.74-22.12,4.43-22.12,8.87s9.55,8.13,22.11,8.87c7.31-3.93,16.83-7.07,24.05-6.6Zm4.48-15.28c.87-1.08,1.85-2.07,2.91-2.96-5.79-5.99-9.59-13.71-12-21.82,2.6,7.32,7.94,15.26,12.72,21.25,2.73-2.07,5.98-3.49,9.53-4.03.24-8.25-2.07-16.41-5.77-24.01-5.5-11.25-12.58-18.61-16.71-16.91-4.13,1.7-3.9,11.88.22,23.7-9.41-8.31-18.79-12.41-21.95-9.27-3.16,3.14.97,12.46,9.33,21.81,7.96,2.36,16.93,6.82,21.7,12.24Z" fill="#fff" stroke-width="0"/>
  <path d="m1851.49,1247.78c-.75.08-1.51.12-2.28.12-.63,0-1.26-.03-1.88-.09-.17,8.31-2.98,16.43-7.04,23.86.74,12.49,4.45,21.98,8.92,21.98s8.18-9.49,8.92-21.98c-3.95-7.26-7.12-16.72-6.64-23.9Zm-2.28-35.97c-8.5,0-15.39,6.85-15.39,15.29s6.89,15.29,15.39,15.29,15.39-6.85,15.39-15.29-6.89-15.29-15.39-15.29Zm16.86,27.61c5.7,6.01,13.14,10.15,21.16,12.93-7.96-2.36-16.93-6.82-21.7-12.24-.87,1.08-1.85,2.07-2.91,2.96,5.79,5.99,9.59,13.71,12,21.82-2.6-7.32-7.94-15.26-12.72-21.25-2.73,2.07-5.98,3.49-9.53,4.03-.24,8.25,2.07,16.41,5.77,24.01,5.5,11.25,12.58,18.61,16.71,16.91,4.13-1.7,3.9-11.88-.22-23.7,9.41,8.31,18.79,12.41,21.95,9.27,3.16-3.14-.97-12.46-9.33-21.81,11.89,4.09,22.14,4.32,23.84.22,1.71-4.1-5.7-11.14-17.02-16.6-7-3.33-16.52-5.2-24.11-6.09-.47,3.54-1.84,6.8-3.88,9.55Zm50.1-12.32c0-4.44-9.55-8.13-22.11-8.87,11.32-5.46,18.73-12.5,17.02-16.6-1.71-4.1-11.95-3.88-23.84.22,8.36-9.35,12.49-18.67,9.33-21.81-3.16-3.14-12.53.97-21.95,9.27,4.12-11.82,4.35-22,.22-23.7-4.13-1.7-11.21,5.66-16.71,16.91-3.35,6.96-5.23,16.42-6.13,23.97,3.56.47,6.84,1.83,9.6,3.85,6.05-5.66,10.21-13.06,13.01-21.03-2.37,7.92-6.87,16.83-12.31,21.57,1.08.86,2.08,1.83,2.97,2.89,6.03-5.75,13.8-9.53,21.96-11.92-7.32,2.56-15.38,7.94-21.39,12.64,2.09,2.71,3.52,5.95,4.05,9.47,8.3.24,16.51-2.06,24.16-5.73-7.31,3.93-16.83,7.07-24.05,6.6.08.75.13,1.5.13,2.27,0,.63-.03,1.25-.09,1.86,8.36.17,16.54,2.96,24.01,7,12.56-.74,22.12-4.43,22.12-8.87Zm-79.36,16.76c-6.05,5.66-10.21,13.06-13.01,21.03,2.37-7.92,6.87-16.83,12.31-21.57-1.08-.86-2.08-1.83-2.97-2.89-6.03,5.75-13.8,9.53-21.96,11.92,7.32-2.56,15.38-7.94,21.38-12.64-2.09-2.71-3.52-5.95-4.05-9.47-8.3-.24-16.51,2.06-24.16,5.73-11.32,5.46-18.73,12.5-17.02,16.6,1.71,4.1,11.95,3.88,23.85-.22-8.36,9.35-12.49,18.67-9.33,21.81,3.16,3.14,12.53-.97,21.95-9.27-4.12,11.82-4.35,22-.22,23.7,4.13,1.7,11.21-5.66,16.71-16.91,3.35-6.96,5.23-16.42,6.13-23.97-3.57-.47-6.84-1.83-9.61-3.85Zm10.11-37.43c.75-.08,1.51-.12,2.28-.12.63,0,1.26.03,1.88.09.17-8.31,2.98-16.43,7.04-23.86-.74-12.49-4.45-21.98-8.92-21.98s-8.18,9.49-8.92,21.98c3.95,7.26,7.12,16.72,6.64,23.9Zm-18.45,17.9c.47-3.54,1.84-6.8,3.88-9.55-5.7-6.01-13.14-10.15-21.16-12.93-11.89-4.09-22.14-4.32-23.85-.22-1.71,4.1,5.7,11.14,17.02,16.6,7,3.33,16.52,5.2,24.11,6.09Zm-.06,5.04c-.08-.75-.13-1.5-.13-2.27,0-.63.03-1.25.09-1.86-8.36-.17-16.54-2.96-24.01-7-12.56.74-22.12,4.43-22.12,8.87s9.55,8.13,22.11,8.87c7.31-3.93,16.83-7.07,24.05-6.6Zm4.48-15.28c.87-1.08,1.85-2.07,2.91-2.96-5.79-5.99-9.59-13.71-12-21.82,2.6,7.32,7.94,15.26,12.72,21.25,2.73-2.07,5.98-3.49,9.53-4.03.24-8.25-2.07-16.41-5.77-24.01-5.5-11.25-12.58-18.61-16.71-16.91-4.13,1.7-3.9,11.88.22,23.7-9.41-8.31-18.79-12.41-21.95-9.27s.97,12.46,9.33,21.81c7.96,2.36,16.93,6.82,21.7,12.24Z" fill="#fff" stroke-width="0"/>
  <path d="m2399.82,957.01c-.6.07-1.21.1-1.83.1-.51,0-1.01-.03-1.5-.07-.14,6.67-2.39,13.2-5.65,19.17.6,10.03,3.57,17.65,7.16,17.65s6.56-7.63,7.16-17.65c-3.17-5.83-5.71-13.43-5.32-19.2Zm-1.83-28.89c-6.82,0-12.34,5.5-12.34,12.28s5.53,12.28,12.34,12.28,12.34-5.5,12.34-12.28-5.53-12.28-12.34-12.28Zm13.52,22.18c4.57,4.83,10.54,8.15,16.98,10.39-6.39-1.89-13.59-5.48-17.41-9.83-.7.87-1.48,1.66-2.34,2.37,4.65,4.81,7.69,11.01,9.62,17.53-2.08-5.88-6.37-12.26-10.2-17.07-2.19,1.66-4.8,2.81-7.65,3.24-.2,6.63,1.66,13.18,4.62,19.29,4.41,9.04,10.09,14.95,13.4,13.59,3.31-1.37,3.13-9.54-.18-19.04,7.55,6.67,15.07,9.97,17.6,7.45,2.53-2.52-.78-10.01-7.48-17.52,9.54,3.29,17.76,3.47,19.13.18,1.37-3.29-4.57-8.95-13.65-13.34-5.62-2.68-13.26-4.18-19.34-4.89-.38,2.84-1.48,5.46-3.11,7.67Zm40.19-9.9c0-3.57-7.66-6.53-17.74-7.12,9.08-4.39,15.02-10.04,13.65-13.34-1.37-3.29-9.59-3.11-19.13.18,6.7-7.51,10.02-15,7.48-17.52-2.53-2.52-10.06.78-17.6,7.45,3.3-9.49,3.49-17.67.18-19.04-3.31-1.37-8.99,4.55-13.4,13.59-2.69,5.59-4.2,13.19-4.92,19.25,2.86.38,5.49,1.47,7.7,3.1,4.85-4.55,8.19-10.49,10.44-16.89-1.9,6.36-5.51,13.52-9.88,17.32.87.69,1.67,1.47,2.38,2.32,4.84-4.62,11.07-7.66,17.61-9.58-5.87,2.06-12.34,6.38-17.16,10.15,1.67,2.18,2.82,4.78,3.25,7.61,6.66.2,13.24-1.66,19.38-4.6-5.86,3.16-13.5,5.68-19.29,5.3.07.6.1,1.21.1,1.82,0,.51-.03,1-.07,1.5,6.7.14,13.26,2.38,19.26,5.62,10.08-.6,17.74-3.56,17.74-7.12Zm-63.66,13.46c-4.85,4.55-8.19,10.49-10.44,16.89,1.9-6.36,5.51-13.52,9.88-17.32-.87-.69-1.67-1.47-2.38-2.32-4.84,4.62-11.07,7.66-17.61,9.58,5.87-2.06,12.34-6.38,17.16-10.15-1.67-2.18-2.82-4.78-3.25-7.61-6.66-.2-13.24,1.66-19.38,4.6-9.08,4.39-15.02,10.04-13.65,13.34,1.37,3.29,9.59,3.11,19.13-.18-6.7,7.51-10.02,15-7.48,17.52,2.53,2.52,10.05-.78,17.6-7.45-3.3,9.49-3.49,17.67-.18,19.04,3.31,1.37,8.99-4.55,13.4-13.59,2.69-5.59,4.2-13.19,4.92-19.25-2.86-.38-5.49-1.47-7.71-3.09Zm8.11-30.07c.6-.07,1.21-.1,1.83-.1.51,0,1.01.03,1.5.07.14-6.67,2.39-13.2,5.65-19.17-.6-10.03-3.57-17.65-7.16-17.65s-6.56,7.63-7.16,17.65c3.17,5.83,5.71,13.43,5.32,19.2Zm-14.8,14.38c.38-2.84,1.48-5.46,3.11-7.67-4.57-4.83-10.54-8.15-16.98-10.39-9.54-3.29-17.76-3.47-19.13-.18-1.37,3.29,4.57,8.95,13.65,13.34,5.62,2.68,13.26,4.18,19.34,4.89Zm-.05,4.05c-.07-.6-.1-1.21-.1-1.82,0-.51.03-1,.07-1.5-6.7-.14-13.26-2.38-19.26-5.62-10.08.59-17.74,3.56-17.74,7.12s7.66,6.53,17.74,7.12c5.86-3.15,13.5-5.68,19.29-5.3Zm3.59-12.27c.7-.87,1.48-1.66,2.34-2.37-4.65-4.81-7.69-11.01-9.62-17.53,2.08,5.88,6.37,12.26,10.2,17.07,2.19-1.66,4.8-2.81,7.65-3.24.2-6.63-1.66-13.18-4.62-19.29-4.41-9.04-10.09-14.95-13.4-13.59-3.31,1.37-3.13,9.54.18,19.04-7.55-6.67-15.07-9.97-17.6-7.45-2.53,2.52.78,10.01,7.48,17.52,6.39,1.89,13.59,5.48,17.41,9.83Z" fill="#fff" stroke-width="0"/>
  <path d="m1508.75,160.08c-.52.06-1.04.09-1.57.09-.43,0-.86-.02-1.29-.06-.12,5.72-2.04,11.32-4.84,16.43.51,8.6,3.06,15.13,6.13,15.13s5.62-6.54,6.13-15.13c-2.72-5-4.89-11.51-4.56-16.46Zm-1.57-24.76c-5.84,0-10.57,4.71-10.57,10.53s4.73,10.53,10.57,10.53,10.57-4.71,10.57-10.53-4.73-10.53-10.57-10.53Zm11.58,19.01c3.91,4.14,9.03,6.99,14.53,8.9-5.47-1.62-11.63-4.7-14.9-8.43-.6.74-1.27,1.42-2,2.03,3.98,4.12,6.59,9.44,8.24,15.02-1.78-5.04-5.46-10.51-8.73-14.63-1.88,1.43-4.11,2.41-6.55,2.77-.17,5.68,1.42,11.3,3.96,16.53,3.77,7.75,8.64,12.81,11.47,11.64,2.83-1.17,2.68-8.18-.15-16.32,6.46,5.72,12.9,8.55,15.07,6.38,2.17-2.16-.67-8.58-6.41-15.02,8.17,2.82,15.2,2.98,16.38.15,1.17-2.82-3.91-7.67-11.69-11.43-4.81-2.29-11.35-3.58-16.56-4.2-.32,2.44-1.27,4.68-2.66,6.57Zm34.41-8.48c0-3.06-6.56-5.59-15.19-6.1,7.78-3.76,12.86-8.61,11.69-11.43-1.17-2.82-8.21-2.67-16.38.15,5.74-6.44,8.58-12.86,6.41-15.02-2.17-2.16-8.61.67-15.07,6.38,2.83-8.14,2.99-15.15.15-16.32-2.83-1.17-7.7,3.9-11.47,11.64-2.3,4.79-3.59,11.31-4.21,16.5,2.45.32,4.7,1.26,6.6,2.65,4.15-3.9,7.01-8.99,8.93-14.48-1.63,5.45-4.72,11.59-8.46,14.85.74.6,1.43,1.26,2.04,1.99,4.14-3.96,9.48-6.56,15.08-8.21-5.03,1.76-10.56,5.47-14.69,8.7,1.43,1.87,2.41,4.09,2.78,6.52,5.7.17,11.34-1.42,16.59-3.95-5.02,2.71-11.56,4.87-16.52,4.54.06.51.09,1.03.09,1.56,0,.43-.02.86-.06,1.28,5.74.12,11.36,2.04,16.49,4.82,8.63-.51,15.19-3.05,15.19-6.11Zm-54.5,11.54c-4.15,3.9-7.01,8.99-8.94,14.48,1.63-5.45,4.72-11.59,8.46-14.85-.74-.6-1.43-1.26-2.04-1.99-4.14,3.96-9.47,6.56-15.08,8.21,5.03-1.76,10.56-5.47,14.69-8.7-1.43-1.87-2.42-4.09-2.78-6.52-5.7-.17-11.34,1.42-16.59,3.95-7.78,3.76-12.86,8.61-11.69,11.43,1.17,2.82,8.21,2.67,16.38-.15-5.74,6.44-8.58,12.86-6.41,15.02,2.17,2.16,8.61-.67,15.07-6.38-2.83,8.14-2.99,15.15-.15,16.32,2.83,1.17,7.7-3.9,11.47-11.64,2.3-4.79,3.59-11.31,4.21-16.5-2.45-.33-4.7-1.26-6.6-2.65Zm6.94-25.77c.52-.06,1.04-.09,1.57-.09.43,0,.86.02,1.29.06.12-5.72,2.04-11.32,4.84-16.43-.51-8.6-3.06-15.13-6.13-15.13s-5.62,6.54-6.13,15.13c2.72,5,4.89,11.51,4.56,16.46Zm-12.67,12.32c.33-2.44,1.27-4.68,2.66-6.57-3.91-4.14-9.03-6.99-14.53-8.9-8.17-2.82-15.2-2.98-16.38-.15-1.17,2.82,3.91,7.67,11.69,11.43,4.81,2.29,11.35,3.58,16.56,4.2Zm-.04,3.47c-.06-.51-.09-1.03-.09-1.56,0-.43.02-.86.06-1.28-5.74-.12-11.36-2.04-16.49-4.82-8.63.51-15.19,3.05-15.19,6.1s6.56,5.59,15.19,6.1c5.02-2.7,11.56-4.87,16.52-4.54Zm3.08-10.52c.6-.74,1.27-1.42,2-2.03-3.98-4.12-6.59-9.44-8.24-15.02,1.78,5.04,5.46,10.51,8.73,14.63,1.88-1.43,4.11-2.41,6.55-2.77.17-5.68-1.42-11.3-3.96-16.53-3.77-7.75-8.64-12.81-11.47-11.64-2.83,1.17-2.68,8.18.15,16.32-6.46-5.72-12.9-8.55-15.07-6.38-2.17,2.16.67,8.58,6.41,15.02,5.47,1.62,11.63,4.7,14.9,8.43Z" fill="#fff" stroke-width="0"/>
  <path d="m671.7,521c-.52.06-1.04.09-1.57.09-.43,0-.86-.02-1.29-.06-.12,5.72-2.04,11.32-4.84,16.43.51,8.6,3.06,15.13,6.13,15.13s5.62-6.54,6.13-15.13c-2.72-5-4.89-11.51-4.56-16.46Zm-1.57-24.76c-5.84,0-10.57,4.71-10.57,10.53s4.73,10.53,10.57,10.53,10.57-4.71,10.57-10.53-4.73-10.53-10.57-10.53Zm11.58,19.01c3.91,4.14,9.03,6.99,14.53,8.9-5.47-1.62-11.63-4.7-14.9-8.43-.6.74-1.27,1.42-2,2.03,3.98,4.12,6.59,9.44,8.24,15.02-1.78-5.04-5.46-10.51-8.73-14.63-1.88,1.43-4.11,2.41-6.55,2.77-.17,5.68,1.42,11.3,3.96,16.53,3.77,7.75,8.64,12.81,11.47,11.64,2.83-1.17,2.68-8.18-.15-16.32,6.46,5.72,12.9,8.55,15.07,6.38,2.17-2.16-.67-8.58-6.41-15.02,8.17,2.82,15.2,2.98,16.38.15,1.17-2.82-3.91-7.67-11.69-11.43-4.81-2.29-11.35-3.58-16.56-4.2-.32,2.44-1.27,4.68-2.66,6.57Zm34.41-8.48c0-3.06-6.56-5.59-15.19-6.1,7.78-3.76,12.86-8.61,11.69-11.43-1.17-2.82-8.21-2.67-16.38.15,5.74-6.44,8.58-12.86,6.41-15.02-2.17-2.16-8.61.67-15.07,6.38,2.83-8.14,2.99-15.15.15-16.32-2.83-1.17-7.7,3.9-11.47,11.64-2.3,4.79-3.59,11.31-4.21,16.5,2.45.32,4.7,1.26,6.6,2.65,4.15-3.9,7.01-8.99,8.93-14.48-1.63,5.45-4.72,11.59-8.46,14.85.74.6,1.43,1.26,2.04,1.99,4.14-3.96,9.48-6.56,15.08-8.21-5.03,1.76-10.56,5.47-14.69,8.7,1.43,1.87,2.42,4.09,2.78,6.52,5.7.17,11.34-1.42,16.59-3.95-5.02,2.71-11.56,4.87-16.52,4.54.06.51.09,1.03.09,1.56,0,.43-.02.86-.06,1.28,5.74.12,11.36,2.04,16.49,4.82,8.63-.51,15.19-3.05,15.19-6.11Zm-54.5,11.54c-4.15,3.9-7.01,8.99-8.94,14.48,1.63-5.45,4.72-11.59,8.46-14.85-.74-.6-1.43-1.26-2.04-1.99-4.14,3.96-9.47,6.56-15.08,8.21,5.03-1.76,10.56-5.47,14.69-8.7-1.43-1.87-2.41-4.09-2.78-6.52-5.7-.17-11.34,1.42-16.59,3.95-7.78,3.76-12.86,8.61-11.69,11.43,1.17,2.82,8.21,2.67,16.38-.15-5.74,6.44-8.58,12.86-6.41,15.02,2.17,2.16,8.61-.67,15.07-6.38-2.83,8.14-2.99,15.15-.15,16.32,2.83,1.17,7.7-3.9,11.47-11.64,2.3-4.79,3.59-11.31,4.21-16.5-2.45-.32-4.7-1.26-6.6-2.65Zm6.94-25.77c.52-.06,1.04-.09,1.57-.09.43,0,.86.02,1.29.06.12-5.72,2.04-11.32,4.84-16.43-.51-8.6-3.06-15.13-6.13-15.13s-5.62,6.54-6.13,15.13c2.72,5,4.89,11.51,4.56,16.46Zm-12.67,12.32c.33-2.44,1.27-4.68,2.66-6.57-3.91-4.14-9.03-6.99-14.53-8.9-8.17-2.82-15.2-2.98-16.38-.15-1.17,2.82,3.91,7.67,11.69,11.43,4.81,2.29,11.35,3.58,16.56,4.2Zm-.04,3.47c-.06-.51-.09-1.03-.09-1.56,0-.43.02-.86.06-1.28-5.74-.12-11.36-2.04-16.49-4.82-8.63.51-15.19,3.05-15.19,6.1s6.56,5.59,15.19,6.1c5.02-2.7,11.56-4.87,16.52-4.54Zm3.08-10.52c.6-.74,1.27-1.42,2-2.03-3.98-4.12-6.59-9.44-8.24-15.02,1.78,5.04,5.46,10.51,8.73,14.63,1.88-1.43,4.11-2.41,6.55-2.77.17-5.68-1.42-11.3-3.96-16.53-3.77-7.75-8.64-12.81-11.47-11.64s-2.68,8.18.15,16.32c-6.46-5.72-12.9-8.55-15.07-6.38-2.17,2.16.67,8.58,6.41,15.02,5.47,1.62,11.63,4.7,14.9,8.43Z" fill="#fff" stroke-width="0"/>
  <path d="m2137.79,68.28c-.87.09-1.74.14-2.63.14-.73,0-1.45-.04-2.16-.1-.2,9.58-3.43,18.95-8.13,27.51.86,14.4,5.14,25.34,10.29,25.34s9.43-10.94,10.29-25.34c-4.56-8.37-8.21-19.28-7.66-27.56Zm-2.63-41.47c-9.8,0-17.75,7.89-17.75,17.63s7.95,17.63,17.75,17.63,17.75-7.89,17.75-17.63-7.95-17.63-17.75-17.63Zm19.45,31.84c6.58,6.93,15.16,11.7,24.42,14.91-9.19-2.72-19.54-7.87-25.04-14.11-1.01,1.24-2.13,2.39-3.36,3.41,6.68,6.91,11.07,15.8,13.84,25.16-3-8.44-9.16-17.6-14.67-24.51-3.15,2.39-6.9,4.03-11,4.64-.28,9.52,2.39,18.92,6.65,27.68,6.34,12.97,14.51,21.46,19.28,19.5s4.5-13.7-.26-27.32c10.86,9.58,21.68,14.31,25.32,10.69,3.65-3.62-1.12-14.36-10.76-25.15,13.72,4.72,25.54,4.98,27.51.25,1.97-4.73-6.57-12.85-19.63-19.14-8.08-3.84-19.07-5.99-27.82-7.03-.55,4.08-2.13,7.84-4.47,11.01Zm57.81-14.21c0-5.12-11.02-9.37-25.52-10.22,13.06-6.3,21.61-14.41,19.63-19.14-1.97-4.73-13.79-4.47-27.51.25,9.64-10.78,14.41-21.53,10.76-25.15-3.65-3.62-14.46,1.11-25.32,10.69,4.75-13.63,5.02-25.37.26-27.32-4.76-1.96-12.93,6.53-19.28,19.5-3.87,8.02-6.04,18.94-7.07,27.63,4.11.54,7.9,2.11,11.08,4.44,6.98-6.53,11.78-15.06,15.01-24.25-2.74,9.13-7.92,19.41-14.21,24.87,1.25,1,2.4,2.11,3.43,3.34,6.96-6.63,15.92-10.99,25.34-13.75-8.45,2.95-17.75,9.15-24.68,14.57,2.41,3.13,4.06,6.86,4.68,10.92,9.58.28,19.05-2.38,27.88-6.61-8.43,4.53-19.42,8.16-27.75,7.61.09.86.15,1.73.15,2.62,0,.72-.04,1.44-.1,2.15,9.64.2,19.08,3.41,27.7,8.07,14.5-.86,25.52-5.11,25.52-10.23Zm-91.57,19.32c-6.98,6.53-11.78,15.06-15.01,24.25,2.74-9.13,7.92-19.41,14.21-24.87-1.25-1-2.4-2.11-3.43-3.34-6.96,6.63-15.92,10.99-25.34,13.75,8.45-2.95,17.75-9.15,24.67-14.57-2.41-3.13-4.06-6.86-4.68-10.92-9.58-.28-19.05,2.38-27.88,6.61-13.06,6.3-21.61,14.41-19.63,19.14,1.97,4.73,13.79,4.47,27.51-.25-9.64,10.78-14.41,21.53-10.76,25.15,3.65,3.62,14.46-1.11,25.32-10.69-4.75,13.63-5.02,25.37-.26,27.32,4.76,1.96,12.93-6.53,19.28-19.5,3.87-8.02,6.04-18.94,7.07-27.63-4.11-.54-7.9-2.11-11.08-4.44Zm11.67-43.16c.87-.09,1.74-.14,2.63-.14.73,0,1.45.04,2.16.1.2-9.58,3.43-18.95,8.13-27.51-.86-14.4-5.14-25.34-10.29-25.34s-9.43,10.94-10.29,25.34c4.56,8.37,8.21,19.28,7.66,27.56Zm-21.29,20.64c.55-4.08,2.13-7.84,4.47-11.01-6.58-6.93-15.16-11.7-24.42-14.91-13.72-4.72-25.54-4.98-27.51-.25-1.97,4.73,6.57,12.85,19.63,19.14,8.08,3.84,19.07,5.99,27.82,7.03Zm-.07,5.81c-.09-.86-.15-1.73-.15-2.62,0-.72.04-1.44.1-2.15-9.64-.2-19.08-3.41-27.7-8.07-14.5.85-25.52,5.1-25.52,10.22s11.02,9.37,25.52,10.22c8.43-4.53,19.42-8.16,27.75-7.61Zm5.17-17.62c1.01-1.24,2.13-2.39,3.36-3.41-6.68-6.91-11.07-15.8-13.84-25.16,3,8.44,9.16,17.6,14.67,24.51,3.15-2.39,6.9-4.03,11-4.64.28-9.52-2.39-18.92-6.65-27.68-6.34-12.97-14.51-21.46-19.28-19.5-4.76,1.96-4.5,13.7.26,27.32-10.86-9.58-21.68-14.31-25.32-10.69-3.65,3.62,1.12,14.36,10.76,25.15,9.19,2.72,19.54,7.87,25.04,14.11Z" fill="#fff" stroke-width="0"/>
  <path d="m606.99,1006.12c-1.24.13-2.49.21-3.76.21-1.04,0-2.07-.06-3.09-.14-.28,13.71-4.9,27.12-11.61,39.38,1.23,20.6,7.34,36.27,14.7,36.27s13.48-15.67,14.7-36.27c-6.52-11.99-11.73-27.6-10.94-39.44Zm-3.76-59.35c-14.01,0-25.36,11.3-25.36,25.24s11.36,25.24,25.36,25.24,25.36-11.3,25.36-25.24-11.36-25.24-25.36-25.24Zm27.79,45.57c9.39,9.92,21.66,16.75,34.88,21.34-13.13-3.89-27.91-11.26-35.77-20.2-1.44,1.78-3.04,3.41-4.8,4.88,9.55,9.88,15.81,22.62,19.78,36.01-4.28-12.08-13.09-25.19-20.96-35.07-4.5,3.42-9.86,5.77-15.71,6.65-.4,13.62,3.42,27.08,9.5,39.62,9.06,18.57,20.73,30.71,27.54,27.91,6.8-2.81,6.43-19.61-.37-39.11,15.51,13.71,30.97,20.48,36.17,15.3,5.21-5.18-1.6-20.56-15.38-35.99,19.6,6.76,36.49,7.13,39.3.36,2.82-6.77-9.39-18.39-28.05-27.4-11.54-5.5-27.24-8.58-39.75-10.06-.78,5.84-3.04,11.22-6.39,15.75Zm82.59-20.33c0-7.33-15.74-13.41-36.45-14.63,18.66-9.01,30.87-20.63,28.05-27.4-2.82-6.77-19.7-6.4-39.3.36,13.78-15.43,20.59-30.81,15.38-35.99s-20.66,1.59-36.17,15.3c6.79-19.5,7.17-36.31.37-39.11-6.8-2.81-18.48,9.34-27.54,27.91-5.53,11.48-8.62,27.1-10.11,39.55,5.87.78,11.28,3.02,15.83,6.36,9.97-9.35,16.83-21.55,21.44-34.71-3.91,13.06-11.32,27.78-20.3,35.59,1.79,1.43,3.43,3.02,4.9,4.78,9.94-9.49,22.74-15.73,36.19-19.67-12.07,4.23-25.36,13.1-35.25,20.86,3.44,4.48,5.8,9.81,6.68,15.64,13.69.4,27.21-3.4,39.82-9.46-12.05,6.48-27.74,11.68-39.64,10.89.13,1.23.21,2.48.21,3.74,0,1.04-.06,2.06-.14,3.08,13.78.28,27.26,4.88,39.58,11.55,20.71-1.22,36.45-7.31,36.45-14.64Zm-130.81,27.65c-9.97,9.35-16.83,21.55-21.44,34.71,3.91-13.06,11.32-27.78,20.3-35.59-1.79-1.43-3.43-3.02-4.9-4.78-9.94,9.49-22.74,15.73-36.19,19.67,12.07-4.23,25.36-13.1,35.25-20.86-3.44-4.48-5.8-9.81-6.68-15.64-13.69-.4-27.21,3.4-39.82,9.46-18.66,9.01-30.87,20.63-28.05,27.4,2.82,6.77,19.7,6.4,39.31-.36-13.78,15.43-20.59,30.81-15.38,35.99,5.21,5.18,20.66-1.59,36.17-15.3-6.79,19.5-7.17,36.31-.37,39.11,6.8,2.81,18.48-9.34,27.54-27.91,5.53-11.48,8.62-27.1,10.11-39.55-5.88-.78-11.28-3.02-15.84-6.36Zm16.67-61.77c1.24-.13,2.49-.21,3.76-.21,1.04,0,2.07.06,3.09.14.28-13.71,4.9-27.12,11.61-39.38-1.23-20.6-7.34-36.27-14.7-36.27s-13.48,15.67-14.7,36.27c6.52,11.99,11.73,27.6,10.94,39.44Zm-30.42,29.54c.78-5.84,3.04-11.22,6.39-15.75-9.39-9.92-21.66-16.75-34.88-21.34-19.6-6.76-36.49-7.13-39.31-.36-2.82,6.77,9.39,18.39,28.05,27.4,11.54,5.5,27.24,8.58,39.75,10.05Zm-.11,8.32c-.13-1.23-.21-2.48-.21-3.74,0-1.04.06-2.06.14-3.08-13.78-.28-27.26-4.88-39.58-11.55-20.71,1.22-36.45,7.31-36.45,14.63s15.74,13.41,36.45,14.63c12.05-6.48,27.74-11.68,39.64-10.89Zm7.38-25.22c1.44-1.78,3.04-3.41,4.8-4.88-9.55-9.88-15.81-22.62-19.78-36.01,4.28,12.08,13.09,25.19,20.96,35.07,4.5-3.42,9.86-5.77,15.71-6.65.4-13.62-3.42-27.08-9.5-39.62-9.06-18.57-20.73-30.71-27.54-27.91-6.8,2.81-6.43,19.61.37,39.11-15.51-13.71-30.97-20.48-36.17-15.3s1.6,20.56,15.38,35.99c13.13,3.89,27.91,11.26,35.77,20.2Z" fill="#fff" stroke-width="0"/>
  <path d="m428.13,1347.03c-1,.11-2.02.17-3.05.17-.85,0-1.68-.05-2.51-.12-.23,11.17-3.98,22.09-9.41,32.08.99,16.78,5.95,29.54,11.92,29.54s10.92-12.76,11.92-29.54c-5.28-9.76-9.51-22.48-8.87-32.13Zm-3.05-48.35c-11.35,0-20.56,9.2-20.56,20.56s9.2,20.56,20.56,20.56,20.56-9.2,20.56-20.56-9.2-20.56-20.56-20.56Zm22.52,37.12c7.61,8.08,17.56,13.64,28.27,17.38-10.64-3.17-22.63-9.17-28.99-16.45-1.17,1.45-2.47,2.78-3.89,3.97,7.74,8.05,12.81,18.43,16.03,29.33-3.47-9.84-10.61-20.52-16.99-28.57-3.65,2.79-7.99,4.7-12.74,5.41-.33,11.09,2.77,22.05,7.7,32.28,7.34,15.13,16.8,25.02,22.32,22.73,5.51-2.28,5.21-15.97-.3-31.86,12.57,11.17,25.1,16.68,29.32,12.46,4.22-4.22-1.3-16.75-12.46-29.32,15.89,5.5,29.57,5.81,31.86.3,2.28-5.51-7.61-14.98-22.73-22.32-9.35-4.48-22.08-6.99-32.22-8.19-.63,4.76-2.46,9.14-5.18,12.83Zm66.94-16.56c0-5.97-12.76-10.92-29.54-11.92,15.13-7.34,25.02-16.8,22.73-22.32s-15.97-5.21-31.86.3c11.17-12.57,16.68-25.1,12.46-29.32-4.22-4.22-16.75,1.3-29.32,12.46,5.5-15.89,5.81-29.57.3-31.86-5.51-2.28-14.98,7.61-22.32,22.73-4.48,9.35-6.99,22.08-8.19,32.22,4.76.63,9.14,2.46,12.83,5.18,8.08-7.61,13.64-17.56,17.38-28.27-3.17,10.64-9.17,22.63-16.45,28.99,1.45,1.16,2.78,2.46,3.97,3.89,8.06-7.73,18.43-12.81,29.34-16.03-9.78,3.44-20.55,10.67-28.57,16.99,2.79,3.65,4.7,7.99,5.42,12.74,11.09.33,22.06-2.77,32.28-7.7-9.77,5.28-22.48,9.51-32.13,8.87.11,1,.17,2.02.17,3.05,0,.85-.05,1.68-.12,2.51,11.17.23,22.09,3.98,32.08,9.41,16.79-1,29.55-5.95,29.55-11.92Zm-106.02,22.53c-8.08,7.61-13.64,17.56-17.38,28.27,3.17-10.64,9.17-22.63,16.45-28.99-1.45-1.16-2.78-2.46-3.97-3.89-8.06,7.73-18.43,12.81-29.34,16.03,9.78-3.44,20.55-10.67,28.57-16.99-2.79-3.65-4.7-7.99-5.42-12.74-11.09-.33-22.06,2.77-32.28,7.7-15.13,7.34-25.02,16.8-22.73,22.32s15.97,5.21,31.86-.3c-11.17,12.57-16.68,25.1-12.46,29.32,4.22,4.22,16.75-1.3,29.32-12.46-5.5,15.89-5.81,29.57-.3,31.86,5.51,2.28,14.98-7.61,22.32-22.73,4.48-9.35,6.99-22.08,8.19-32.22-4.76-.63-9.14-2.46-12.83-5.18Zm13.51-50.32c1-.11,2.02-.17,3.05-.17.85,0,1.68.05,2.51.12.23-11.17,3.98-22.09,9.41-32.08-.99-16.78-5.95-29.54-11.92-29.54s-10.92,12.76-11.92,29.54c5.28,9.76,9.51,22.48,8.87,32.13Zm-24.65,24.06c.63-4.76,2.46-9.14,5.18-12.83-7.61-8.08-17.56-13.64-28.27-17.38-15.89-5.5-29.57-5.81-31.86-.3-2.28,5.51,7.61,14.98,22.73,22.32,9.35,4.48,22.08,6.99,32.22,8.19Zm-.09,6.78c-.11-1-.17-2.02-.17-3.05,0-.85.05-1.68.12-2.51-11.17-.23-22.09-3.98-32.08-9.41-16.79.99-29.55,5.95-29.55,11.92s12.76,10.92,29.54,11.92c9.77-5.28,22.48-9.51,32.13-8.87Zm5.99-20.54c1.17-1.45,2.47-2.78,3.89-3.97-7.74-8.05-12.81-18.43-16.03-29.33,3.47,9.84,10.61,20.52,16.99,28.57,3.65-2.79,7.99-4.7,12.74-5.42.33-11.09-2.77-22.06-7.7-32.28-7.34-15.13-16.8-25.02-22.32-22.73s-5.21,15.97.3,31.86c-12.57-11.17-25.1-16.69-29.32-12.46-4.22,4.22,1.3,16.75,12.46,29.32,10.64,3.17,22.63,9.17,28.99,16.45Z" fill="#fff" stroke-width="0"/>
  <path d="m205.45,1043.17c-.67.07-1.35.11-2.05.11-.57,0-1.13-.03-1.68-.08-.15,7.49-2.67,14.82-6.31,21.51.67,11.26,3.99,19.82,7.99,19.82s7.33-8.56,7.99-19.82c-3.54-6.55-6.38-15.08-5.95-21.55Zm-2.05-32.43c-7.61,0-13.79,6.17-13.79,13.79s6.17,13.79,13.79,13.79,13.79-6.17,13.79-13.79-6.17-13.79-13.79-13.79Zm15.11,24.9c5.11,5.42,11.78,9.15,18.96,11.66-7.14-2.13-15.18-6.15-19.45-11.03-.78.97-1.65,1.87-2.61,2.66,5.19,5.4,8.59,12.36,10.75,19.67-2.33-6.6-7.12-13.76-11.4-19.16-2.45,1.87-5.36,3.15-8.54,3.63-.22,7.44,1.86,14.79,5.17,21.65,4.92,10.15,11.27,16.78,14.97,15.25,3.7-1.53,3.49-10.71-.2-21.37,8.43,7.49,16.84,11.19,19.67,8.36,2.83-2.83-.87-11.23-8.36-19.67,10.66,3.69,19.84,3.9,21.37.2,1.53-3.7-5.1-10.04-15.25-14.97-6.27-3-14.81-4.69-21.61-5.49-.42,3.19-1.65,6.13-3.47,8.61Zm44.9-11.11c0-4-8.56-7.33-19.82-7.99,10.14-4.92,16.78-11.27,15.25-14.97-1.53-3.7-10.71-3.49-21.37.2,7.49-8.43,11.19-16.84,8.36-19.67-2.83-2.83-11.23.87-19.67,8.36,3.69-10.66,3.9-19.84.2-21.37-3.7-1.53-10.04,5.1-14.97,15.25-3,6.27-4.69,14.81-5.49,21.61,3.19.43,6.13,1.65,8.61,3.47,5.42-5.11,9.15-11.78,11.66-18.96-2.13,7.14-6.15,15.18-11.03,19.45.97.78,1.86,1.65,2.66,2.61,5.41-5.19,12.36-8.59,19.68-10.75-6.56,2.31-13.78,7.16-19.16,11.4,1.87,2.45,3.15,5.36,3.63,8.54,7.44.22,14.79-1.86,21.65-5.17-6.55,3.54-15.08,6.38-21.55,5.95.07.67.11,1.35.11,2.05,0,.57-.03,1.13-.08,1.68,7.49.15,14.82,2.67,21.51,6.31,11.26-.67,19.82-3.99,19.82-8Zm-71.11,15.11c-5.42,5.11-9.15,11.78-11.66,18.96,2.13-7.14,6.15-15.18,11.03-19.45-.97-.78-1.86-1.65-2.66-2.61-5.41,5.19-12.36,8.59-19.68,10.75,6.56-2.31,13.78-7.16,19.16-11.4-1.87-2.45-3.15-5.36-3.63-8.54-7.44-.22-14.79,1.86-21.65,5.17-10.14,4.93-16.78,11.27-15.25,14.97,1.53,3.7,10.71,3.49,21.37-.2-7.49,8.43-11.19,16.84-8.36,19.67,2.83,2.83,11.23-.87,19.67-8.36-3.69,10.66-3.9,19.84-.2,21.37,3.7,1.53,10.04-5.1,14.97-15.25,3-6.27,4.69-14.81,5.49-21.61-3.2-.43-6.13-1.65-8.61-3.47Zm9.06-33.75c.67-.07,1.35-.11,2.05-.11.57,0,1.13.03,1.68.08.15-7.49,2.67-14.82,6.31-21.51-.67-11.26-3.99-19.82-7.99-19.82s-7.33,8.56-7.99,19.82c3.54,6.55,6.38,15.08,5.95,21.55Zm-16.54,16.14c.43-3.19,1.65-6.13,3.47-8.61-5.11-5.42-11.78-9.15-18.96-11.66-10.66-3.69-19.84-3.9-21.37-.2-1.53,3.7,5.1,10.04,15.25,14.97,6.27,3,14.81,4.69,21.61,5.49Zm-.06,4.55c-.07-.67-.11-1.35-.11-2.05,0-.57.03-1.13.08-1.68-7.49-.15-14.82-2.67-21.51-6.31-11.26.67-19.82,3.99-19.82,7.99s8.56,7.33,19.82,7.99c6.55-3.54,15.08-6.38,21.55-5.95Zm4.01-13.78c.78-.97,1.65-1.87,2.61-2.66-5.19-5.4-8.59-12.36-10.75-19.67,2.33,6.6,7.12,13.76,11.4,19.16,2.45-1.87,5.36-3.15,8.54-3.63.22-7.44-1.86-14.79-5.17-21.65-4.92-10.15-11.27-16.78-14.97-15.25-3.7,1.53-3.49,10.71.2,21.37-8.43-7.49-16.84-11.19-19.67-8.36-2.83,2.83.87,11.23,8.36,19.67,7.14,2.13,15.18,6.15,19.45,11.03Z" fill="#fff" stroke-width="0"/>
  <path d="m1247.55,550.79c-.77.08-1.54.13-2.33.13-.65,0-1.28-.03-1.92-.09-.18,8.53-3.04,16.88-7.2,24.51.76,12.83,4.55,22.58,9.12,22.58s8.36-9.75,9.12-22.58c-4.04-7.46-7.27-17.18-6.78-24.55Zm-2.33-36.95c-8.68,0-15.72,7.03-15.72,15.71s7.04,15.71,15.72,15.71,15.72-7.03,15.72-15.71-7.04-15.71-15.72-15.71Zm17.23,28.37c5.82,6.17,13.43,10.42,21.63,13.28-8.14-2.42-17.31-7.01-22.18-12.57-.89,1.11-1.89,2.13-2.98,3.04,5.92,6.15,9.8,14.08,12.26,22.42-2.65-7.52-8.12-15.68-13-21.83-2.79,2.13-6.11,3.59-9.74,4.14-.25,8.48,2.12,16.85,5.89,24.67,5.62,11.56,12.85,19.12,17.07,17.37,4.22-1.75,3.99-12.21-.23-24.34,9.62,8.53,19.2,12.75,22.43,9.53,3.23-3.23-.99-12.8-9.53-22.41,12.15,4.21,22.62,4.44,24.37.23,1.75-4.21-5.82-11.45-17.39-17.06-7.15-3.42-16.89-5.34-24.64-6.26-.48,3.64-1.88,6.99-3.96,9.81Zm51.21-12.66c0-4.56-9.76-8.35-22.6-9.11,11.57-5.61,19.14-12.84,17.39-17.06-1.75-4.21-12.22-3.98-24.37.23,8.54-9.61,12.76-19.18,9.53-22.41-3.23-3.23-12.81.99-22.43,9.53,4.21-12.14,4.44-22.6.23-24.34-4.22-1.75-11.46,5.82-17.07,17.37-3.43,7.15-5.35,16.87-6.27,24.62,3.64.48,6.99,1.88,9.82,3.96,6.18-5.82,10.43-13.42,13.3-21.61-2.43,8.13-7.02,17.29-12.58,22.16,1.11.89,2.13,1.88,3.04,2.97,6.17-5.91,14.1-9.79,22.44-12.25-7.48,2.63-15.72,8.15-21.85,12.98,2.13,2.79,3.59,6.11,4.14,9.73,8.49.25,16.87-2.12,24.69-5.89-7.47,4.04-17.2,7.27-24.58,6.78.08.77.13,1.54.13,2.33,0,.65-.03,1.28-.09,1.92,8.54.18,16.9,3.04,24.54,7.19,12.84-.76,22.6-4.55,22.6-9.11Zm-81.1,17.22c-6.18,5.82-10.43,13.42-13.3,21.61,2.42-8.13,7.02-17.29,12.58-22.16-1.11-.89-2.13-1.88-3.04-2.97-6.17,5.91-14.1,9.79-22.44,12.25,7.48-2.63,15.72-8.15,21.86-12.98-2.13-2.79-3.59-6.11-4.14-9.73-8.49-.25-16.87,2.12-24.69,5.89-11.57,5.61-19.14,12.84-17.39,17.06,1.75,4.21,12.22,3.98,24.37-.23-8.54,9.61-12.76,19.18-9.53,22.41,3.23,3.23,12.81-.99,22.43-9.53-4.21,12.14-4.44,22.6-.23,24.34,4.22,1.75,11.46-5.82,17.07-17.37,3.43-7.15,5.35-16.87,6.27-24.62-3.64-.48-7-1.88-9.82-3.96Zm10.33-38.45c.77-.08,1.54-.13,2.33-.13.65,0,1.28.03,1.92.09.18-8.53,3.04-16.88,7.2-24.51-.76-12.83-4.55-22.58-9.12-22.58s-8.36,9.75-9.12,22.58c4.04,7.46,7.27,17.18,6.78,24.55Zm-18.86,18.39c.49-3.64,1.88-6.99,3.96-9.81-5.82-6.17-13.43-10.42-21.63-13.28-12.15-4.21-22.62-4.44-24.37-.23-1.75,4.21,5.82,11.44,17.39,17.06,7.15,3.42,16.89,5.34,24.64,6.26Zm-.07,5.18c-.08-.77-.13-1.54-.13-2.33,0-.65.03-1.28.09-1.92-8.54-.18-16.9-3.04-24.54-7.19-12.84.76-22.6,4.55-22.6,9.11s9.76,8.35,22.6,9.11c7.47-4.03,17.2-7.27,24.58-6.78Zm4.58-15.7c.89-1.11,1.89-2.13,2.98-3.04-5.92-6.15-9.8-14.08-12.26-22.42,2.65,7.52,8.12,15.68,13,21.83,2.79-2.13,6.11-3.59,9.74-4.14.25-8.48-2.12-16.86-5.89-24.67-5.62-11.56-12.85-19.12-17.07-17.37s-3.99,12.21.23,24.34c-9.62-8.53-19.2-12.75-22.43-9.53s.99,12.8,9.53,22.41c8.14,2.42,17.31,7.01,22.18,12.57Z" fill="#fff" stroke-width="0"/>
  <path d="m910.56,245.88c-2.09.23-4.2.35-6.35.35-1.76,0-3.5-.09-5.22-.24-.48,23.1-8.27,45.71-19.59,66.37,2.07,34.73,12.38,61.13,24.8,61.13s22.73-26.4,24.8-61.13c-10.99-20.2-19.79-46.52-18.45-66.48Zm-6.35-100.04c-23.62,0-42.78,19.04-42.78,42.53s19.15,42.53,42.78,42.53,42.78-19.04,42.78-42.53-19.15-42.53-42.78-42.53Zm46.87,76.8c15.85,16.72,36.54,28.22,58.83,35.96-22.14-6.56-47.08-18.98-60.33-34.04-2.42,3-5.13,5.75-8.1,8.22,16.1,16.66,26.66,38.13,33.36,60.69-7.22-20.37-22.08-42.46-35.35-59.12-7.59,5.76-16.63,9.72-26.5,11.2-.68,22.95,5.76,45.63,16.03,66.78,15.28,31.3,34.97,51.77,46.44,47.04,11.47-4.73,10.84-33.04-.62-65.91,26.16,23.1,52.23,34.52,61.01,25.79,8.78-8.73-2.7-34.65-25.94-60.67,33.06,11.39,61.54,12.02,66.29.61,4.75-11.41-15.83-30.99-47.31-46.18-19.46-9.27-45.94-14.46-67.04-16.95-1.31,9.85-5.12,18.92-10.77,26.55Zm139.3-34.27c0-12.35-26.55-22.6-61.48-24.66,31.48-15.19,52.06-34.77,47.31-46.18-4.75-11.41-33.23-10.78-66.29.61,23.24-26.01,34.72-51.93,25.94-60.67s-34.85,2.69-61.01,25.79c11.45-32.87,12.09-61.19.62-65.91-11.47-4.73-31.16,15.74-46.44,47.04-9.32,19.35-14.54,45.68-17.04,66.66,9.9,1.31,19.02,5.1,26.7,10.72,16.81-15.76,28.38-36.33,36.17-58.5-6.6,22.02-19.09,46.81-34.23,59.99,3.01,2.41,5.78,5.1,8.26,8.05,16.77-16,38.35-26.51,61.05-33.16-20.35,7.13-42.77,22.08-59.46,35.15,5.8,7.55,9.78,16.54,11.27,26.35,23.09.68,45.9-5.73,67.17-15.94-20.32,10.93-46.78,19.68-66.86,18.35.23,2.07.35,4.18.35,6.31,0,1.75-.09,3.48-.24,5.19,23.24.47,45.97,8.23,66.75,19.47,34.93-2.06,61.49-12.32,61.49-24.67Zm-220.63,46.61c-16.81,15.76-28.38,36.33-36.17,58.5,6.6-22.02,19.09-46.81,34.23-59.99-3.01-2.41-5.78-5.1-8.26-8.05-16.77,16-38.36,26.51-61.05,33.16,20.35-7.13,42.77-22.08,59.45-35.15-5.8-7.55-9.78-16.54-11.27-26.35-23.09-.68-45.9,5.73-67.17,15.94-31.48,15.19-52.06,34.77-47.31,46.18s33.23,10.78,66.3-.61c-23.24,26.01-34.72,51.93-25.94,60.67,8.78,8.73,34.85-2.69,61.01-25.79-11.45,32.87-12.09,61.19-.62,65.91,11.47,4.73,31.16-15.74,46.44-47.04,9.32-19.35,14.54-45.68,17.04-66.66-9.91-1.31-19.03-5.09-26.71-10.71Zm28.11-104.11c2.09-.23,4.2-.35,6.35-.35,1.76,0,3.5.09,5.22.24.48-23.1,8.27-45.71,19.59-66.37-2.07-34.73-12.38-61.13-24.8-61.13s-22.73,26.4-24.8,61.13c10.99,20.2,19.79,46.52,18.45,66.48Zm-51.3,49.79c1.32-9.85,5.13-18.92,10.78-26.55-15.85-16.72-36.54-28.22-58.83-35.96-33.06-11.39-61.54-12.02-66.3-.61-4.75,11.41,15.83,30.99,47.31,46.18,19.46,9.27,45.94,14.46,67.04,16.95Zm-.18,14.02c-.23-2.07-.35-4.18-.35-6.31,0-1.75.09-3.48.24-5.19-23.24-.47-45.97-8.23-66.75-19.47-34.93,2.06-61.49,12.31-61.49,24.66s26.55,22.6,61.48,24.66c20.32-10.92,46.78-19.68,66.86-18.35Zm12.46-42.5c2.42-3,5.13-5.75,8.1-8.22-16.1-16.66-26.66-38.13-33.36-60.69,7.22,20.37,22.08,42.46,35.35,59.12,7.59-5.76,16.63-9.72,26.5-11.2.68-22.95-5.76-45.64-16.03-66.78-15.28-31.3-34.97-51.77-46.44-47.04-11.47,4.73-10.84,33.04.62,65.91-26.16-23.1-52.23-34.52-61.01-25.79-8.78,8.73,2.7,34.65,25.94,60.67,22.14,6.56,47.08,18.98,60.33,34.04Z" fill="#fff" stroke-width="0"/>
  <path d="m1464.12,960.83c-2.43.26-4.89.41-7.39.41-2.05,0-4.07-.11-6.07-.28-.56,27.05-9.63,53.52-22.8,77.71,2.41,40.66,14.42,71.58,28.87,71.58s26.46-30.92,28.87-71.58c-12.8-23.65-23.04-54.47-21.48-77.84Zm-7.39-117.14c-27.5,0-49.8,22.3-49.8,49.8s22.3,49.8,49.8,49.8,49.8-22.3,49.8-49.8-22.3-49.8-49.8-49.8Zm54.57,89.93c18.45,19.57,42.54,33.05,68.5,42.11-25.78-7.68-54.82-22.22-70.24-39.86-2.82,3.51-5.98,6.74-9.43,9.62,18.75,19.51,31.04,44.64,38.83,71.07-8.4-23.85-25.71-49.71-41.16-69.22-8.84,6.75-19.37,11.38-30.86,13.12-.79,26.88,6.71,53.43,18.66,78.2,17.79,36.65,40.71,60.62,54.07,55.08,13.36-5.54,12.62-38.69-.72-77.18,30.46,27.05,60.81,40.42,71.04,30.2,10.23-10.23-3.15-40.57-30.2-71.04,38.49,13.33,71.65,14.08,77.18.72,5.54-13.36-18.44-36.28-55.08-54.07-22.66-10.85-53.48-16.93-78.05-19.84-1.53,11.53-5.96,22.15-12.54,31.09Zm162.18-40.13c0-14.46-30.92-26.46-71.58-28.87,36.65-17.79,60.62-40.71,55.08-54.07-5.54-13.36-38.69-12.62-77.18.72,27.05-30.46,40.42-60.81,30.2-71.04-10.23-10.23-40.57,3.15-71.04,30.2,13.33-38.49,14.08-71.65.72-77.18-13.36-5.54-36.28,18.44-54.07,55.08-10.85,22.66-16.93,53.48-19.84,78.05,11.53,1.54,22.15,5.97,31.09,12.55,19.57-18.45,33.05-42.54,42.11-68.5-7.68,25.78-22.23,54.82-39.86,70.24,3.51,2.82,6.73,5.97,9.62,9.42,19.53-18.73,44.65-31.04,71.07-38.83-23.69,8.35-49.79,25.85-69.22,41.16,6.75,8.84,11.38,19.37,13.12,30.86,26.88.79,53.44-6.71,78.2-18.66-23.66,12.8-54.47,23.04-77.84,21.49.26,2.43.41,4.89.41,7.39,0,2.05-.11,4.07-.28,6.07,27.05.56,53.52,9.63,77.71,22.8,40.67-2.42,71.58-14.42,71.58-28.89Zm-256.87,54.58c-19.57,18.45-33.05,42.54-42.11,68.5,7.68-25.78,22.23-54.82,39.86-70.24-3.51-2.82-6.73-5.97-9.62-9.42-19.53,18.73-44.65,31.04-71.07,38.83,23.69-8.35,49.79-25.85,69.22-41.16-6.75-8.84-11.38-19.37-13.12-30.86-26.88-.79-53.44,6.71-78.2,18.66-36.65,17.79-60.62,40.71-55.08,54.07,5.54,13.36,38.69,12.62,77.18-.72-27.05,30.46-40.42,60.81-30.2,71.04,10.23,10.23,40.57-3.15,71.04-30.2-13.33,38.49-14.08,71.65-.72,77.18,13.36,5.54,36.28-18.44,54.07-55.08,10.85-22.66,16.93-53.48,19.84-78.05-11.54-1.54-22.16-5.96-31.1-12.54Zm32.73-121.9c2.43-.26,4.89-.41,7.39-.41,2.05,0,4.07.11,6.07.28.56-27.05,9.63-53.52,22.8-77.71-2.41-40.66-14.42-71.58-28.87-71.58s-26.46,30.92-28.87,71.58c12.8,23.65,23.04,54.47,21.48,77.84Zm-59.73,58.3c1.54-11.53,5.97-22.15,12.55-31.09-18.45-19.57-42.54-33.05-68.5-42.11-38.49-13.33-71.65-14.08-77.18-.72-5.54,13.36,18.44,36.28,55.08,54.07,22.66,10.85,53.48,16.93,78.05,19.84Zm-.21,16.42c-.26-2.43-.41-4.89-.41-7.39,0-2.05.11-4.07.28-6.07-27.05-.56-53.52-9.63-77.71-22.8-40.67,2.41-71.58,14.42-71.58,28.87s30.92,26.46,71.58,28.87c23.66-12.79,54.47-23.04,77.84-21.48Zm14.5-49.76c2.82-3.51,5.98-6.74,9.43-9.62-18.75-19.51-31.04-44.64-38.83-71.07,8.4,23.85,25.71,49.71,41.16,69.22,8.84-6.75,19.37-11.38,30.86-13.12.79-26.88-6.71-53.44-18.66-78.2-17.79-36.64-40.71-60.62-54.07-55.08-13.36,5.54-12.62,38.69.72,77.18-30.46-27.05-60.81-40.42-71.04-30.2-10.23,10.23,3.15,40.57,30.2,71.04,25.78,7.68,54.82,22.22,70.24,39.86Z" fill="#fff" stroke-width="0"/>
  <path d="m2400.96,604.58c-1.22.13-2.45.2-3.71.2-1.03,0-2.04-.06-3.05-.14-.28,13.57-4.83,26.85-11.44,38.99,1.21,20.4,7.23,35.91,14.49,35.91s13.28-15.51,14.49-35.91c-6.42-11.87-11.56-27.32-10.78-39.05Zm-3.71-58.77c-13.8,0-24.99,11.19-24.99,24.99s11.19,24.98,24.99,24.98,24.99-11.19,24.99-24.98-11.19-24.99-24.99-24.99Zm27.38,45.12c9.26,9.82,21.34,16.58,34.36,21.13-12.93-3.85-27.5-11.15-35.24-19.99-1.42,1.76-3,3.38-4.73,4.83,9.4,9.79,15.57,22.4,19.48,35.65-4.22-11.96-12.9-24.94-20.65-34.73-4.43,3.39-9.72,5.71-15.48,6.58-.4,13.48,3.37,26.81,9.36,39.23,8.92,18.38,20.43,30.41,27.13,27.63,6.7-2.78,6.33-19.41-.36-38.72,15.28,13.57,30.51,20.28,35.64,15.15s-1.58-20.35-15.15-35.64c19.31,6.69,35.95,7.06,38.72.36,2.78-6.7-9.25-18.2-27.63-27.13-11.37-5.44-26.83-8.49-39.16-9.96-.77,5.78-2.99,11.11-6.29,15.6Zm81.36-20.13c0-7.26-15.51-13.28-35.91-14.49,18.38-8.92,30.41-20.43,27.63-27.13-2.78-6.7-19.41-6.33-38.72.36,13.57-15.28,20.28-30.51,15.15-35.64-5.13-5.13-20.35,1.58-35.64,15.15,6.69-19.31,7.06-35.94.36-38.72-6.7-2.78-18.2,9.25-27.13,27.63-5.44,11.37-8.49,26.83-9.96,39.16,5.78.77,11.11,2.99,15.6,6.3,9.82-9.26,16.58-21.34,21.13-34.36-3.85,12.93-11.15,27.5-19.99,35.24,1.76,1.41,3.38,2.99,4.83,4.73,9.8-9.4,22.4-15.57,35.66-19.48-11.89,4.19-24.98,12.97-34.73,20.65,3.39,4.43,5.71,9.72,6.58,15.48,13.48.4,26.81-3.37,39.23-9.36-11.87,6.42-27.32,11.56-39.05,10.78.13,1.22.2,2.45.2,3.71,0,1.03-.06,2.04-.14,3.05,13.57.28,26.85,4.83,38.99,11.44,20.4-1.21,35.91-7.24,35.91-14.49Zm-128.87,27.38c-9.82,9.26-16.58,21.34-21.13,34.36,3.85-12.93,11.15-27.5,19.99-35.24-1.76-1.41-3.38-2.99-4.82-4.73-9.8,9.4-22.4,15.57-35.66,19.48,11.89-4.19,24.98-12.97,34.73-20.65-3.39-4.43-5.71-9.72-6.58-15.48-13.48-.4-26.81,3.37-39.23,9.36-18.38,8.92-30.41,20.43-27.63,27.13,2.78,6.7,19.41,6.33,38.72-.36-13.57,15.28-20.28,30.51-15.15,35.64,5.13,5.13,20.35-1.58,35.64-15.15-6.69,19.31-7.06,35.94-.36,38.72,6.7,2.78,18.2-9.25,27.13-27.63,5.44-11.37,8.49-26.83,9.96-39.16-5.79-.77-11.12-2.99-15.6-6.29Zm16.42-61.16c1.22-.13,2.45-.2,3.71-.2,1.03,0,2.04.06,3.05.14.28-13.57,4.83-26.85,11.44-38.99-1.21-20.4-7.23-35.91-14.49-35.91s-13.28,15.51-14.49,35.91c6.42,11.87,11.56,27.32,10.78,39.05Zm-29.97,29.25c.77-5.78,2.99-11.11,6.3-15.6-9.26-9.82-21.34-16.58-34.36-21.13-19.31-6.69-35.94-7.06-38.72-.36-2.78,6.7,9.25,18.2,27.63,27.13,11.37,5.44,26.83,8.49,39.16,9.96Zm-.1,8.24c-.13-1.22-.2-2.45-.2-3.71,0-1.03.05-2.04.14-3.05-13.57-.28-26.85-4.83-38.99-11.44-20.4,1.21-35.91,7.23-35.91,14.49s15.51,13.28,35.91,14.49c11.87-6.42,27.32-11.56,39.05-10.78Zm7.28-24.97c1.42-1.76,3-3.38,4.73-4.83-9.4-9.79-15.57-22.4-19.48-35.65,4.22,11.96,12.9,24.94,20.65,34.73,4.43-3.39,9.72-5.71,15.48-6.58.4-13.48-3.37-26.81-9.36-39.23-8.92-18.38-20.43-30.41-27.13-27.63s-6.33,19.41.36,38.72c-15.28-13.57-30.51-20.28-35.64-15.15s1.58,20.35,15.15,35.64c12.93,3.85,27.5,11.15,35.24,19.99Z" fill="#fff" stroke-width="0"/>
  <path d="m2371.38,570.74c0-14.08,11.41-25.49,25.49-25.49s25.49,11.41,25.49,25.49-11.41,25.49-25.49,25.49-25.49-11.41-25.49-25.49Z" fill="#fcb80d" stroke-width="0"/>
  <path d="m1001.75,1079.88c-.61.07-1.23.1-1.86.1-.52,0-1.02-.03-1.53-.07-.14,6.81-2.42,13.47-5.74,19.56.61,10.23,3.63,18.01,7.27,18.01s6.66-7.78,7.27-18.01c-3.22-5.95-5.8-13.71-5.41-19.59Zm-1.86-29.48c-6.92,0-12.53,5.61-12.53,12.53s5.61,12.53,12.53,12.53,12.53-5.61,12.53-12.53-5.61-12.53-12.53-12.53Zm13.73,22.63c4.64,4.93,10.71,8.32,17.24,10.6-6.49-1.93-13.8-5.59-17.68-10.03-.71.88-1.5,1.7-2.37,2.42,4.72,4.91,7.81,11.24,9.77,17.89-2.12-6-6.47-12.51-10.36-17.42-2.22,1.7-4.87,2.86-7.77,3.3-.2,6.76,1.69,13.45,4.7,19.68,4.48,9.22,10.25,15.26,13.61,13.86,3.36-1.39,3.18-9.74-.18-19.42,7.67,6.81,15.3,10.17,17.88,7.6,2.57-2.57-.79-10.21-7.6-17.88,9.69,3.36,18.03,3.54,19.42.18,1.39-3.36-4.64-9.13-13.86-13.61-5.7-2.73-13.46-4.26-19.64-4.99-.39,2.9-1.5,5.57-3.16,7.82Zm40.82-10.1c0-3.64-7.78-6.66-18.01-7.27,9.22-4.48,15.26-10.25,13.86-13.61-1.39-3.36-9.74-3.18-19.42.18,6.81-7.67,10.17-15.3,7.6-17.88-2.57-2.57-10.21.79-17.88,7.6,3.36-9.69,3.54-18.03.18-19.42-3.36-1.39-9.13,4.64-13.61,13.86-2.73,5.7-4.26,13.46-4.99,19.64,2.9.39,5.57,1.5,7.82,3.16,4.93-4.64,8.32-10.71,10.6-17.24-1.93,6.49-5.59,13.8-10.03,17.68.88.71,1.69,1.5,2.42,2.37,4.91-4.71,11.24-7.81,17.89-9.77-5.96,2.1-12.53,6.51-17.42,10.36,1.7,2.22,2.86,4.87,3.3,7.77,6.76.2,13.45-1.69,19.68-4.7-5.96,3.22-13.71,5.8-19.59,5.41.07.61.1,1.23.1,1.86,0,.52-.03,1.02-.07,1.53,6.81.14,13.47,2.42,19.56,5.74,10.24-.61,18.02-3.63,18.02-7.27Zm-64.65,13.74c-4.93,4.64-8.32,10.71-10.6,17.24,1.93-6.49,5.59-13.8,10.03-17.68-.88-.71-1.69-1.5-2.42-2.37-4.91,4.71-11.24,7.81-17.89,9.77,5.96-2.1,12.53-6.51,17.42-10.36-1.7-2.22-2.86-4.87-3.3-7.77-6.76-.2-13.45,1.69-19.68,4.7-9.22,4.48-15.26,10.25-13.86,13.61,1.39,3.36,9.74,3.18,19.43-.18-6.81,7.67-10.17,15.3-7.6,17.88s10.21-.79,17.88-7.6c-3.36,9.69-3.54,18.03-.18,19.42,3.36,1.39,9.13-4.64,13.61-13.86,2.73-5.7,4.26-13.46,4.99-19.64-2.91-.39-5.58-1.5-7.83-3.16Zm8.24-30.68c.61-.07,1.23-.1,1.86-.1.52,0,1.02.03,1.53.07.14-6.81,2.42-13.47,5.74-19.56-.61-10.23-3.63-18.01-7.27-18.01s-6.66,7.78-7.27,18.01c3.22,5.95,5.8,13.71,5.41,19.59Zm-15.03,14.67c.39-2.9,1.5-5.57,3.16-7.82-4.64-4.93-10.71-8.32-17.24-10.6-9.69-3.36-18.03-3.54-19.43-.18-1.39,3.36,4.64,9.13,13.86,13.61,5.7,2.73,13.46,4.26,19.64,4.99Zm-.05,4.13c-.07-.61-.1-1.23-.1-1.86,0-.52.03-1.02.07-1.53-6.81-.14-13.47-2.42-19.56-5.74-10.24.61-18.02,3.63-18.02,7.27s7.78,6.66,18.01,7.27c5.96-3.22,13.71-5.8,19.59-5.41Zm3.65-12.52c.71-.88,1.5-1.7,2.37-2.42-4.72-4.91-7.81-11.24-9.77-17.89,2.12,6,6.47,12.51,10.36,17.42,2.22-1.7,4.87-2.86,7.77-3.3.2-6.76-1.69-13.45-4.7-19.68-4.48-9.22-10.25-15.26-13.61-13.86s-3.18,9.74.18,19.42c-7.67-6.81-15.3-10.17-17.88-7.6-2.57,2.57.79,10.21,7.6,17.88,6.49,1.93,13.8,5.59,17.68,10.03Z" fill="#fff" stroke-width="0"/>
  <path d="m2814.44,307.51c0-30.65,24.85-55.5,55.5-55.5s55.5,24.85,55.5,55.5-24.85,55.5-55.5,55.5-55.5-24.85-55.5-55.5ZM147.08,528.5c34.61,0,62.66-28.05,62.66-62.66s-28.05-62.66-62.66-62.66-62.66,28.05-62.66,62.66,28.05,62.66,62.66,62.66Zm1019.49,1119.62c28.72,0,52-23.28,52-52s-23.28-52-52-52-52,23.28-52,52,23.28,52,52,52ZM1945.21,404.19c24.1,0,43.64-19.43,43.64-43.39s-19.54-43.39-43.64-43.39-43.64,19.43-43.64,43.39,19.54,43.39,43.64,43.39Zm493.36,986.87c24.1,0,43.64-19.43,43.64-43.39s-19.54-43.39-43.64-43.39-43.64,19.43-43.64,43.39,19.54,43.39,43.64,43.39ZM.43,1423.09c18.96,0,34.33-15.27,34.33-34.1s-15.37-34.1-34.33-34.1-34.33,15.27-34.33,34.1,15.37,34.1,34.33,34.1Zm1951.27,302.79c13.15,0,23.8-10.61,23.8-23.7s-10.66-23.7-23.8-23.7-23.81,10.61-23.81,23.7,10.66,23.7,23.81,23.7Zm970.83-544.37c13.15,0,23.8-10.61,23.8-23.7s-10.66-23.7-23.8-23.7-23.81,10.61-23.81,23.7,10.66,23.7,23.81,23.7Zm-67.24,363.88c8.67,0,15.7-6.98,15.7-15.6s-7.03-15.6-15.7-15.6-15.7,6.98-15.7,15.6,7.03,15.6,15.7,15.6Zm-1006.31-302.72c8.67,0,15.7-6.98,15.7-15.6s-7.03-15.6-15.7-15.6-15.7,6.98-15.7,15.6,7.03,15.6,15.7,15.6Zm548.82-289.77c6.95,0,12.59-5.61,12.59-12.53s-5.64-12.53-12.59-12.53-12.59,5.61-12.59,12.53,5.64,12.53,12.59,12.53ZM1507.02,156.56c5.95,0,10.78-4.81,10.78-10.74s-4.83-10.74-10.78-10.74-10.78,4.81-10.78,10.74,4.83,10.74,10.78,10.74Zm-837.05,360.93c5.95,0,10.78-4.81,10.78-10.74s-4.83-10.74-10.78-10.74-10.78,4.81-10.78,10.74,4.83,10.74,10.78,10.74ZM2134.89,62.39c10,0,18.11-8.05,18.11-17.99s-8.11-17.99-18.11-17.99-18.11,8.05-18.11,17.99,8.11,17.99,18.11,17.99ZM602.85,997.68c14.29,0,25.88-11.53,25.88-25.75s-11.58-25.75-25.88-25.75-25.88,11.53-25.88,25.75,11.58,25.75,25.88,25.75Zm-178.08,342.48c11.58,0,20.97-9.39,20.97-20.97s-9.39-20.97-20.97-20.97-20.97,9.39-20.97,20.97,9.39,20.97,20.97,20.97Zm-221.57-301.59c7.77,0,14.07-6.3,14.07-14.07s-6.3-14.07-14.07-14.07-14.07,6.3-14.07,14.07,6.3,14.07,14.07,14.07Zm1041.78-493.02c8.86,0,16.04-7.18,16.04-16.03s-7.18-16.03-16.04-16.03-16.04,7.18-16.04,16.03,7.18,16.03,16.04,16.03Zm-341.41-313.88c24.1,0,43.64-19.43,43.64-43.39s-19.54-43.39-43.64-43.39-43.64,19.43-43.64,43.39,19.54,43.39,43.64,43.39Zm552.42,712.52c28.06,0,50.81-22.75,50.81-50.81s-22.75-50.81-50.81-50.81-50.81,22.75-50.81,50.81,22.75,50.81,50.81,50.81Zm-456.28,131.51c7.06,0,12.79-5.73,12.79-12.79s-5.73-12.79-12.79-12.79-12.79,5.73-12.79,12.79,5.73,12.79,12.79,12.79Z" fill="#fcb80d" stroke-width="0"/>
</svg>